%TF.GenerationSoftware,KiCad,Pcbnew,10.0.5*%
%TF.CreationDate,2026-08-28T13:52:16+01:00*%
%TF.ProjectId,smartwatch,736d6172-7477-4617-9463-682e6b696361,rev?*%
%TF.SameCoordinates,Original*%
%TF.FileFunction,Legend,Bot*%
%TF.FilePolarity,Positive*%
%FSLAX46Y46*%
G04 Gerber Fmt 4.6, Leading zero omitted, Abs format (unit mm)*
G04 Created by KiCad (PCBNEW 10.0.5) date 2026-08-28 13:52:16*
%MOMM*%
%LPD*%
G01*
G04 APERTURE LIST*
%ADD10C,0.100000*%
%ADD11C,0.200000*%
%ADD12C,0.300000*%
%ADD13C,0.150000*%
%ADD14C,0.000000*%
%ADD15C,0.120000*%
G04 APERTURE END LIST*
D10*
X124800000Y-59000000D02*
X127200000Y-59000000D01*
X127200000Y-60600000D01*
X124800000Y-60600000D01*
X124800000Y-59000000D01*
X124172306Y-60411167D02*
X124743734Y-60411167D01*
X124458020Y-60411167D02*
X124458020Y-59411167D01*
X124458020Y-59411167D02*
X124553258Y-59554024D01*
X124553258Y-59554024D02*
X124648496Y-59649262D01*
X124648496Y-59649262D02*
X124743734Y-59696881D01*
X123791353Y-59506405D02*
X123743734Y-59458786D01*
X123743734Y-59458786D02*
X123648496Y-59411167D01*
X123648496Y-59411167D02*
X123410401Y-59411167D01*
X123410401Y-59411167D02*
X123315163Y-59458786D01*
X123315163Y-59458786D02*
X123267544Y-59506405D01*
X123267544Y-59506405D02*
X123219925Y-59601643D01*
X123219925Y-59601643D02*
X123219925Y-59696881D01*
X123219925Y-59696881D02*
X123267544Y-59839738D01*
X123267544Y-59839738D02*
X123838972Y-60411167D01*
X123838972Y-60411167D02*
X123219925Y-60411167D01*
X122886591Y-59744500D02*
X122648496Y-60411167D01*
X122648496Y-60411167D02*
X122410401Y-59744500D01*
X116061252Y-72200000D02*
X117600000Y-72200000D01*
X117600000Y-74400000D01*
X116061252Y-74400000D01*
X116061252Y-72200000D01*
X119991353Y-72872419D02*
X119372306Y-72872419D01*
X119372306Y-72872419D02*
X119705639Y-73253371D01*
X119705639Y-73253371D02*
X119562782Y-73253371D01*
X119562782Y-73253371D02*
X119467544Y-73300990D01*
X119467544Y-73300990D02*
X119419925Y-73348609D01*
X119419925Y-73348609D02*
X119372306Y-73443847D01*
X119372306Y-73443847D02*
X119372306Y-73681942D01*
X119372306Y-73681942D02*
X119419925Y-73777180D01*
X119419925Y-73777180D02*
X119467544Y-73824800D01*
X119467544Y-73824800D02*
X119562782Y-73872419D01*
X119562782Y-73872419D02*
X119848496Y-73872419D01*
X119848496Y-73872419D02*
X119943734Y-73824800D01*
X119943734Y-73824800D02*
X119991353Y-73777180D01*
X119038972Y-73205752D02*
X118800877Y-73872419D01*
X118800877Y-73872419D02*
X118562782Y-73205752D01*
X118277067Y-72872419D02*
X117658020Y-72872419D01*
X117658020Y-72872419D02*
X117991353Y-73253371D01*
X117991353Y-73253371D02*
X117848496Y-73253371D01*
X117848496Y-73253371D02*
X117753258Y-73300990D01*
X117753258Y-73300990D02*
X117705639Y-73348609D01*
X117705639Y-73348609D02*
X117658020Y-73443847D01*
X117658020Y-73443847D02*
X117658020Y-73681942D01*
X117658020Y-73681942D02*
X117705639Y-73777180D01*
X117705639Y-73777180D02*
X117753258Y-73824800D01*
X117753258Y-73824800D02*
X117848496Y-73872419D01*
X117848496Y-73872419D02*
X118134210Y-73872419D01*
X118134210Y-73872419D02*
X118229448Y-73824800D01*
X118229448Y-73824800D02*
X118277067Y-73777180D01*
X101400000Y-66600000D02*
X101400000Y-85400000D01*
X101400000Y-85400000D02*
X123200000Y-85400000D01*
X118600000Y-66600000D02*
X101400000Y-66600000D01*
X119200000Y-77800000D02*
X119200000Y-66600000D01*
X123200000Y-77800000D02*
X119200000Y-77800000D01*
X123200000Y-85400000D02*
X123200000Y-77800000D01*
X124000000Y-55000000D02*
X139600000Y-55000000D01*
X139600000Y-69200000D01*
X124000000Y-69200000D01*
X124000000Y-55000000D01*
X118896115Y-60672419D02*
X118896115Y-59672419D01*
X118896115Y-59672419D02*
X118658020Y-59672419D01*
X118658020Y-59672419D02*
X118515163Y-59720038D01*
X118515163Y-59720038D02*
X118419925Y-59815276D01*
X118419925Y-59815276D02*
X118372306Y-59910514D01*
X118372306Y-59910514D02*
X118324687Y-60100990D01*
X118324687Y-60100990D02*
X118324687Y-60243847D01*
X118324687Y-60243847D02*
X118372306Y-60434323D01*
X118372306Y-60434323D02*
X118419925Y-60529561D01*
X118419925Y-60529561D02*
X118515163Y-60624800D01*
X118515163Y-60624800D02*
X118658020Y-60672419D01*
X118658020Y-60672419D02*
X118896115Y-60672419D01*
X117515163Y-60624800D02*
X117610401Y-60672419D01*
X117610401Y-60672419D02*
X117800877Y-60672419D01*
X117800877Y-60672419D02*
X117896115Y-60624800D01*
X117896115Y-60624800D02*
X117943734Y-60529561D01*
X117943734Y-60529561D02*
X117943734Y-60148609D01*
X117943734Y-60148609D02*
X117896115Y-60053371D01*
X117896115Y-60053371D02*
X117800877Y-60005752D01*
X117800877Y-60005752D02*
X117610401Y-60005752D01*
X117610401Y-60005752D02*
X117515163Y-60053371D01*
X117515163Y-60053371D02*
X117467544Y-60148609D01*
X117467544Y-60148609D02*
X117467544Y-60243847D01*
X117467544Y-60243847D02*
X117943734Y-60339085D01*
X117086591Y-60624800D02*
X116991353Y-60672419D01*
X116991353Y-60672419D02*
X116800877Y-60672419D01*
X116800877Y-60672419D02*
X116705639Y-60624800D01*
X116705639Y-60624800D02*
X116658020Y-60529561D01*
X116658020Y-60529561D02*
X116658020Y-60481942D01*
X116658020Y-60481942D02*
X116705639Y-60386704D01*
X116705639Y-60386704D02*
X116800877Y-60339085D01*
X116800877Y-60339085D02*
X116943734Y-60339085D01*
X116943734Y-60339085D02*
X117038972Y-60291466D01*
X117038972Y-60291466D02*
X117086591Y-60196228D01*
X117086591Y-60196228D02*
X117086591Y-60148609D01*
X117086591Y-60148609D02*
X117038972Y-60053371D01*
X117038972Y-60053371D02*
X116943734Y-60005752D01*
X116943734Y-60005752D02*
X116800877Y-60005752D01*
X116800877Y-60005752D02*
X116705639Y-60053371D01*
X116229448Y-60672419D02*
X116229448Y-60005752D01*
X116229448Y-59672419D02*
X116277067Y-59720038D01*
X116277067Y-59720038D02*
X116229448Y-59767657D01*
X116229448Y-59767657D02*
X116181829Y-59720038D01*
X116181829Y-59720038D02*
X116229448Y-59672419D01*
X116229448Y-59672419D02*
X116229448Y-59767657D01*
X115324687Y-60005752D02*
X115324687Y-60815276D01*
X115324687Y-60815276D02*
X115372306Y-60910514D01*
X115372306Y-60910514D02*
X115419925Y-60958133D01*
X115419925Y-60958133D02*
X115515163Y-61005752D01*
X115515163Y-61005752D02*
X115658020Y-61005752D01*
X115658020Y-61005752D02*
X115753258Y-60958133D01*
X115324687Y-60624800D02*
X115419925Y-60672419D01*
X115419925Y-60672419D02*
X115610401Y-60672419D01*
X115610401Y-60672419D02*
X115705639Y-60624800D01*
X115705639Y-60624800D02*
X115753258Y-60577180D01*
X115753258Y-60577180D02*
X115800877Y-60481942D01*
X115800877Y-60481942D02*
X115800877Y-60196228D01*
X115800877Y-60196228D02*
X115753258Y-60100990D01*
X115753258Y-60100990D02*
X115705639Y-60053371D01*
X115705639Y-60053371D02*
X115610401Y-60005752D01*
X115610401Y-60005752D02*
X115419925Y-60005752D01*
X115419925Y-60005752D02*
X115324687Y-60053371D01*
X114848496Y-60005752D02*
X114848496Y-60672419D01*
X114848496Y-60100990D02*
X114800877Y-60053371D01*
X114800877Y-60053371D02*
X114705639Y-60005752D01*
X114705639Y-60005752D02*
X114562782Y-60005752D01*
X114562782Y-60005752D02*
X114467544Y-60053371D01*
X114467544Y-60053371D02*
X114419925Y-60148609D01*
X114419925Y-60148609D02*
X114419925Y-60672419D01*
X113562782Y-60624800D02*
X113658020Y-60672419D01*
X113658020Y-60672419D02*
X113848496Y-60672419D01*
X113848496Y-60672419D02*
X113943734Y-60624800D01*
X113943734Y-60624800D02*
X113991353Y-60529561D01*
X113991353Y-60529561D02*
X113991353Y-60148609D01*
X113991353Y-60148609D02*
X113943734Y-60053371D01*
X113943734Y-60053371D02*
X113848496Y-60005752D01*
X113848496Y-60005752D02*
X113658020Y-60005752D01*
X113658020Y-60005752D02*
X113562782Y-60053371D01*
X113562782Y-60053371D02*
X113515163Y-60148609D01*
X113515163Y-60148609D02*
X113515163Y-60243847D01*
X113515163Y-60243847D02*
X113991353Y-60339085D01*
X112658020Y-60672419D02*
X112658020Y-59672419D01*
X112658020Y-60624800D02*
X112753258Y-60672419D01*
X112753258Y-60672419D02*
X112943734Y-60672419D01*
X112943734Y-60672419D02*
X113038972Y-60624800D01*
X113038972Y-60624800D02*
X113086591Y-60577180D01*
X113086591Y-60577180D02*
X113134210Y-60481942D01*
X113134210Y-60481942D02*
X113134210Y-60196228D01*
X113134210Y-60196228D02*
X113086591Y-60100990D01*
X113086591Y-60100990D02*
X113038972Y-60053371D01*
X113038972Y-60053371D02*
X112943734Y-60005752D01*
X112943734Y-60005752D02*
X112753258Y-60005752D01*
X112753258Y-60005752D02*
X112658020Y-60053371D01*
X111419924Y-60672419D02*
X111419924Y-59672419D01*
X111419924Y-60053371D02*
X111324686Y-60005752D01*
X111324686Y-60005752D02*
X111134210Y-60005752D01*
X111134210Y-60005752D02*
X111038972Y-60053371D01*
X111038972Y-60053371D02*
X110991353Y-60100990D01*
X110991353Y-60100990D02*
X110943734Y-60196228D01*
X110943734Y-60196228D02*
X110943734Y-60481942D01*
X110943734Y-60481942D02*
X110991353Y-60577180D01*
X110991353Y-60577180D02*
X111038972Y-60624800D01*
X111038972Y-60624800D02*
X111134210Y-60672419D01*
X111134210Y-60672419D02*
X111324686Y-60672419D01*
X111324686Y-60672419D02*
X111419924Y-60624800D01*
X110610400Y-60005752D02*
X110372305Y-60672419D01*
X110134210Y-60005752D02*
X110372305Y-60672419D01*
X110372305Y-60672419D02*
X110467543Y-60910514D01*
X110467543Y-60910514D02*
X110515162Y-60958133D01*
X110515162Y-60958133D02*
X110610400Y-61005752D01*
X108991352Y-60672419D02*
X108991352Y-59672419D01*
X108991352Y-59672419D02*
X108419924Y-60672419D01*
X108419924Y-60672419D02*
X108419924Y-59672419D01*
X107515162Y-60672419D02*
X107515162Y-60148609D01*
X107515162Y-60148609D02*
X107562781Y-60053371D01*
X107562781Y-60053371D02*
X107658019Y-60005752D01*
X107658019Y-60005752D02*
X107848495Y-60005752D01*
X107848495Y-60005752D02*
X107943733Y-60053371D01*
X107515162Y-60624800D02*
X107610400Y-60672419D01*
X107610400Y-60672419D02*
X107848495Y-60672419D01*
X107848495Y-60672419D02*
X107943733Y-60624800D01*
X107943733Y-60624800D02*
X107991352Y-60529561D01*
X107991352Y-60529561D02*
X107991352Y-60434323D01*
X107991352Y-60434323D02*
X107943733Y-60339085D01*
X107943733Y-60339085D02*
X107848495Y-60291466D01*
X107848495Y-60291466D02*
X107610400Y-60291466D01*
X107610400Y-60291466D02*
X107515162Y-60243847D01*
X107181828Y-60005752D02*
X106800876Y-60005752D01*
X107038971Y-59672419D02*
X107038971Y-60529561D01*
X107038971Y-60529561D02*
X106991352Y-60624800D01*
X106991352Y-60624800D02*
X106896114Y-60672419D01*
X106896114Y-60672419D02*
X106800876Y-60672419D01*
X106467542Y-60672419D02*
X106467542Y-59672419D01*
X106038971Y-60672419D02*
X106038971Y-60148609D01*
X106038971Y-60148609D02*
X106086590Y-60053371D01*
X106086590Y-60053371D02*
X106181828Y-60005752D01*
X106181828Y-60005752D02*
X106324685Y-60005752D01*
X106324685Y-60005752D02*
X106419923Y-60053371D01*
X106419923Y-60053371D02*
X106467542Y-60100990D01*
X105134209Y-60672419D02*
X105134209Y-60148609D01*
X105134209Y-60148609D02*
X105181828Y-60053371D01*
X105181828Y-60053371D02*
X105277066Y-60005752D01*
X105277066Y-60005752D02*
X105467542Y-60005752D01*
X105467542Y-60005752D02*
X105562780Y-60053371D01*
X105134209Y-60624800D02*
X105229447Y-60672419D01*
X105229447Y-60672419D02*
X105467542Y-60672419D01*
X105467542Y-60672419D02*
X105562780Y-60624800D01*
X105562780Y-60624800D02*
X105610399Y-60529561D01*
X105610399Y-60529561D02*
X105610399Y-60434323D01*
X105610399Y-60434323D02*
X105562780Y-60339085D01*
X105562780Y-60339085D02*
X105467542Y-60291466D01*
X105467542Y-60291466D02*
X105229447Y-60291466D01*
X105229447Y-60291466D02*
X105134209Y-60243847D01*
X104658018Y-60005752D02*
X104658018Y-60672419D01*
X104658018Y-60100990D02*
X104610399Y-60053371D01*
X104610399Y-60053371D02*
X104515161Y-60005752D01*
X104515161Y-60005752D02*
X104372304Y-60005752D01*
X104372304Y-60005752D02*
X104277066Y-60053371D01*
X104277066Y-60053371D02*
X104229447Y-60148609D01*
X104229447Y-60148609D02*
X104229447Y-60672419D01*
X103753256Y-60577180D02*
X103705637Y-60624800D01*
X103705637Y-60624800D02*
X103753256Y-60672419D01*
X103753256Y-60672419D02*
X103800875Y-60624800D01*
X103800875Y-60624800D02*
X103753256Y-60577180D01*
X103753256Y-60577180D02*
X103753256Y-60672419D01*
D11*
X120030326Y-55867219D02*
X120030326Y-54867219D01*
X120030326Y-54867219D02*
X119649374Y-54867219D01*
X119649374Y-54867219D02*
X119554136Y-54914838D01*
X119554136Y-54914838D02*
X119506517Y-54962457D01*
X119506517Y-54962457D02*
X119458898Y-55057695D01*
X119458898Y-55057695D02*
X119458898Y-55200552D01*
X119458898Y-55200552D02*
X119506517Y-55295790D01*
X119506517Y-55295790D02*
X119554136Y-55343409D01*
X119554136Y-55343409D02*
X119649374Y-55391028D01*
X119649374Y-55391028D02*
X120030326Y-55391028D01*
X119030326Y-55867219D02*
X119030326Y-55200552D01*
X119030326Y-54867219D02*
X119077945Y-54914838D01*
X119077945Y-54914838D02*
X119030326Y-54962457D01*
X119030326Y-54962457D02*
X118982707Y-54914838D01*
X118982707Y-54914838D02*
X119030326Y-54867219D01*
X119030326Y-54867219D02*
X119030326Y-54962457D01*
X118554136Y-55200552D02*
X118554136Y-55867219D01*
X118554136Y-55295790D02*
X118506517Y-55248171D01*
X118506517Y-55248171D02*
X118411279Y-55200552D01*
X118411279Y-55200552D02*
X118268422Y-55200552D01*
X118268422Y-55200552D02*
X118173184Y-55248171D01*
X118173184Y-55248171D02*
X118125565Y-55343409D01*
X118125565Y-55343409D02*
X118125565Y-55867219D01*
X117268422Y-55819600D02*
X117363660Y-55867219D01*
X117363660Y-55867219D02*
X117554136Y-55867219D01*
X117554136Y-55867219D02*
X117649374Y-55819600D01*
X117649374Y-55819600D02*
X117696993Y-55724361D01*
X117696993Y-55724361D02*
X117696993Y-55343409D01*
X117696993Y-55343409D02*
X117649374Y-55248171D01*
X117649374Y-55248171D02*
X117554136Y-55200552D01*
X117554136Y-55200552D02*
X117363660Y-55200552D01*
X117363660Y-55200552D02*
X117268422Y-55248171D01*
X117268422Y-55248171D02*
X117220803Y-55343409D01*
X117220803Y-55343409D02*
X117220803Y-55438647D01*
X117220803Y-55438647D02*
X117696993Y-55533885D01*
X116363660Y-55867219D02*
X116363660Y-55343409D01*
X116363660Y-55343409D02*
X116411279Y-55248171D01*
X116411279Y-55248171D02*
X116506517Y-55200552D01*
X116506517Y-55200552D02*
X116696993Y-55200552D01*
X116696993Y-55200552D02*
X116792231Y-55248171D01*
X116363660Y-55819600D02*
X116458898Y-55867219D01*
X116458898Y-55867219D02*
X116696993Y-55867219D01*
X116696993Y-55867219D02*
X116792231Y-55819600D01*
X116792231Y-55819600D02*
X116839850Y-55724361D01*
X116839850Y-55724361D02*
X116839850Y-55629123D01*
X116839850Y-55629123D02*
X116792231Y-55533885D01*
X116792231Y-55533885D02*
X116696993Y-55486266D01*
X116696993Y-55486266D02*
X116458898Y-55486266D01*
X116458898Y-55486266D02*
X116363660Y-55438647D01*
X115887469Y-55200552D02*
X115887469Y-56200552D01*
X115887469Y-55248171D02*
X115792231Y-55200552D01*
X115792231Y-55200552D02*
X115601755Y-55200552D01*
X115601755Y-55200552D02*
X115506517Y-55248171D01*
X115506517Y-55248171D02*
X115458898Y-55295790D01*
X115458898Y-55295790D02*
X115411279Y-55391028D01*
X115411279Y-55391028D02*
X115411279Y-55676742D01*
X115411279Y-55676742D02*
X115458898Y-55771980D01*
X115458898Y-55771980D02*
X115506517Y-55819600D01*
X115506517Y-55819600D02*
X115601755Y-55867219D01*
X115601755Y-55867219D02*
X115792231Y-55867219D01*
X115792231Y-55867219D02*
X115887469Y-55819600D01*
X114982707Y-55200552D02*
X114982707Y-56200552D01*
X114982707Y-55248171D02*
X114887469Y-55200552D01*
X114887469Y-55200552D02*
X114696993Y-55200552D01*
X114696993Y-55200552D02*
X114601755Y-55248171D01*
X114601755Y-55248171D02*
X114554136Y-55295790D01*
X114554136Y-55295790D02*
X114506517Y-55391028D01*
X114506517Y-55391028D02*
X114506517Y-55676742D01*
X114506517Y-55676742D02*
X114554136Y-55771980D01*
X114554136Y-55771980D02*
X114601755Y-55819600D01*
X114601755Y-55819600D02*
X114696993Y-55867219D01*
X114696993Y-55867219D02*
X114887469Y-55867219D01*
X114887469Y-55867219D02*
X114982707Y-55819600D01*
X113935088Y-55867219D02*
X114030326Y-55819600D01*
X114030326Y-55819600D02*
X114077945Y-55724361D01*
X114077945Y-55724361D02*
X114077945Y-54867219D01*
X113173183Y-55819600D02*
X113268421Y-55867219D01*
X113268421Y-55867219D02*
X113458897Y-55867219D01*
X113458897Y-55867219D02*
X113554135Y-55819600D01*
X113554135Y-55819600D02*
X113601754Y-55724361D01*
X113601754Y-55724361D02*
X113601754Y-55343409D01*
X113601754Y-55343409D02*
X113554135Y-55248171D01*
X113554135Y-55248171D02*
X113458897Y-55200552D01*
X113458897Y-55200552D02*
X113268421Y-55200552D01*
X113268421Y-55200552D02*
X113173183Y-55248171D01*
X113173183Y-55248171D02*
X113125564Y-55343409D01*
X113125564Y-55343409D02*
X113125564Y-55438647D01*
X113125564Y-55438647D02*
X113601754Y-55533885D01*
X112792230Y-55200552D02*
X112554135Y-55867219D01*
X112316040Y-55200552D02*
X112554135Y-55867219D01*
X112554135Y-55867219D02*
X112649373Y-56105314D01*
X112649373Y-56105314D02*
X112696992Y-56152933D01*
X112696992Y-56152933D02*
X112792230Y-56200552D01*
X111268420Y-54867219D02*
X111030325Y-55867219D01*
X111030325Y-55867219D02*
X110839849Y-55152933D01*
X110839849Y-55152933D02*
X110649373Y-55867219D01*
X110649373Y-55867219D02*
X110411278Y-54867219D01*
X109601754Y-55867219D02*
X109601754Y-55343409D01*
X109601754Y-55343409D02*
X109649373Y-55248171D01*
X109649373Y-55248171D02*
X109744611Y-55200552D01*
X109744611Y-55200552D02*
X109935087Y-55200552D01*
X109935087Y-55200552D02*
X110030325Y-55248171D01*
X109601754Y-55819600D02*
X109696992Y-55867219D01*
X109696992Y-55867219D02*
X109935087Y-55867219D01*
X109935087Y-55867219D02*
X110030325Y-55819600D01*
X110030325Y-55819600D02*
X110077944Y-55724361D01*
X110077944Y-55724361D02*
X110077944Y-55629123D01*
X110077944Y-55629123D02*
X110030325Y-55533885D01*
X110030325Y-55533885D02*
X109935087Y-55486266D01*
X109935087Y-55486266D02*
X109696992Y-55486266D01*
X109696992Y-55486266D02*
X109601754Y-55438647D01*
X109268420Y-55200552D02*
X108887468Y-55200552D01*
X109125563Y-54867219D02*
X109125563Y-55724361D01*
X109125563Y-55724361D02*
X109077944Y-55819600D01*
X109077944Y-55819600D02*
X108982706Y-55867219D01*
X108982706Y-55867219D02*
X108887468Y-55867219D01*
X108125563Y-55819600D02*
X108220801Y-55867219D01*
X108220801Y-55867219D02*
X108411277Y-55867219D01*
X108411277Y-55867219D02*
X108506515Y-55819600D01*
X108506515Y-55819600D02*
X108554134Y-55771980D01*
X108554134Y-55771980D02*
X108601753Y-55676742D01*
X108601753Y-55676742D02*
X108601753Y-55391028D01*
X108601753Y-55391028D02*
X108554134Y-55295790D01*
X108554134Y-55295790D02*
X108506515Y-55248171D01*
X108506515Y-55248171D02*
X108411277Y-55200552D01*
X108411277Y-55200552D02*
X108220801Y-55200552D01*
X108220801Y-55200552D02*
X108125563Y-55248171D01*
X107696991Y-55867219D02*
X107696991Y-54867219D01*
X107268420Y-55867219D02*
X107268420Y-55343409D01*
X107268420Y-55343409D02*
X107316039Y-55248171D01*
X107316039Y-55248171D02*
X107411277Y-55200552D01*
X107411277Y-55200552D02*
X107554134Y-55200552D01*
X107554134Y-55200552D02*
X107649372Y-55248171D01*
X107649372Y-55248171D02*
X107696991Y-55295790D01*
X121058898Y-87571980D02*
X121106517Y-87619600D01*
X121106517Y-87619600D02*
X121249374Y-87667219D01*
X121249374Y-87667219D02*
X121344612Y-87667219D01*
X121344612Y-87667219D02*
X121487469Y-87619600D01*
X121487469Y-87619600D02*
X121582707Y-87524361D01*
X121582707Y-87524361D02*
X121630326Y-87429123D01*
X121630326Y-87429123D02*
X121677945Y-87238647D01*
X121677945Y-87238647D02*
X121677945Y-87095790D01*
X121677945Y-87095790D02*
X121630326Y-86905314D01*
X121630326Y-86905314D02*
X121582707Y-86810076D01*
X121582707Y-86810076D02*
X121487469Y-86714838D01*
X121487469Y-86714838D02*
X121344612Y-86667219D01*
X121344612Y-86667219D02*
X121249374Y-86667219D01*
X121249374Y-86667219D02*
X121106517Y-86714838D01*
X121106517Y-86714838D02*
X121058898Y-86762457D01*
X120630326Y-87667219D02*
X120630326Y-86667219D01*
X120201755Y-87667219D02*
X120201755Y-87143409D01*
X120201755Y-87143409D02*
X120249374Y-87048171D01*
X120249374Y-87048171D02*
X120344612Y-87000552D01*
X120344612Y-87000552D02*
X120487469Y-87000552D01*
X120487469Y-87000552D02*
X120582707Y-87048171D01*
X120582707Y-87048171D02*
X120630326Y-87095790D01*
X119296993Y-87667219D02*
X119296993Y-87143409D01*
X119296993Y-87143409D02*
X119344612Y-87048171D01*
X119344612Y-87048171D02*
X119439850Y-87000552D01*
X119439850Y-87000552D02*
X119630326Y-87000552D01*
X119630326Y-87000552D02*
X119725564Y-87048171D01*
X119296993Y-87619600D02*
X119392231Y-87667219D01*
X119392231Y-87667219D02*
X119630326Y-87667219D01*
X119630326Y-87667219D02*
X119725564Y-87619600D01*
X119725564Y-87619600D02*
X119773183Y-87524361D01*
X119773183Y-87524361D02*
X119773183Y-87429123D01*
X119773183Y-87429123D02*
X119725564Y-87333885D01*
X119725564Y-87333885D02*
X119630326Y-87286266D01*
X119630326Y-87286266D02*
X119392231Y-87286266D01*
X119392231Y-87286266D02*
X119296993Y-87238647D01*
X118820802Y-87667219D02*
X118820802Y-87000552D01*
X118820802Y-87191028D02*
X118773183Y-87095790D01*
X118773183Y-87095790D02*
X118725564Y-87048171D01*
X118725564Y-87048171D02*
X118630326Y-87000552D01*
X118630326Y-87000552D02*
X118535088Y-87000552D01*
X117773183Y-87000552D02*
X117773183Y-87810076D01*
X117773183Y-87810076D02*
X117820802Y-87905314D01*
X117820802Y-87905314D02*
X117868421Y-87952933D01*
X117868421Y-87952933D02*
X117963659Y-88000552D01*
X117963659Y-88000552D02*
X118106516Y-88000552D01*
X118106516Y-88000552D02*
X118201754Y-87952933D01*
X117773183Y-87619600D02*
X117868421Y-87667219D01*
X117868421Y-87667219D02*
X118058897Y-87667219D01*
X118058897Y-87667219D02*
X118154135Y-87619600D01*
X118154135Y-87619600D02*
X118201754Y-87571980D01*
X118201754Y-87571980D02*
X118249373Y-87476742D01*
X118249373Y-87476742D02*
X118249373Y-87191028D01*
X118249373Y-87191028D02*
X118201754Y-87095790D01*
X118201754Y-87095790D02*
X118154135Y-87048171D01*
X118154135Y-87048171D02*
X118058897Y-87000552D01*
X118058897Y-87000552D02*
X117868421Y-87000552D01*
X117868421Y-87000552D02*
X117773183Y-87048171D01*
X116916040Y-87619600D02*
X117011278Y-87667219D01*
X117011278Y-87667219D02*
X117201754Y-87667219D01*
X117201754Y-87667219D02*
X117296992Y-87619600D01*
X117296992Y-87619600D02*
X117344611Y-87524361D01*
X117344611Y-87524361D02*
X117344611Y-87143409D01*
X117344611Y-87143409D02*
X117296992Y-87048171D01*
X117296992Y-87048171D02*
X117201754Y-87000552D01*
X117201754Y-87000552D02*
X117011278Y-87000552D01*
X117011278Y-87000552D02*
X116916040Y-87048171D01*
X116916040Y-87048171D02*
X116868421Y-87143409D01*
X116868421Y-87143409D02*
X116868421Y-87238647D01*
X116868421Y-87238647D02*
X117344611Y-87333885D01*
X116439849Y-87667219D02*
X116439849Y-87000552D01*
X116439849Y-87191028D02*
X116392230Y-87095790D01*
X116392230Y-87095790D02*
X116344611Y-87048171D01*
X116344611Y-87048171D02*
X116249373Y-87000552D01*
X116249373Y-87000552D02*
X116154135Y-87000552D01*
X114249372Y-87667219D02*
X114296992Y-87667219D01*
X114296992Y-87667219D02*
X114392230Y-87619600D01*
X114392230Y-87619600D02*
X114535087Y-87476742D01*
X114535087Y-87476742D02*
X114773182Y-87191028D01*
X114773182Y-87191028D02*
X114868420Y-87048171D01*
X114868420Y-87048171D02*
X114916039Y-86905314D01*
X114916039Y-86905314D02*
X114916039Y-86810076D01*
X114916039Y-86810076D02*
X114868420Y-86714838D01*
X114868420Y-86714838D02*
X114773182Y-86667219D01*
X114773182Y-86667219D02*
X114725563Y-86667219D01*
X114725563Y-86667219D02*
X114630325Y-86714838D01*
X114630325Y-86714838D02*
X114582706Y-86810076D01*
X114582706Y-86810076D02*
X114582706Y-86857695D01*
X114582706Y-86857695D02*
X114630325Y-86952933D01*
X114630325Y-86952933D02*
X114677944Y-87000552D01*
X114677944Y-87000552D02*
X114963658Y-87191028D01*
X114963658Y-87191028D02*
X115011277Y-87238647D01*
X115011277Y-87238647D02*
X115058896Y-87333885D01*
X115058896Y-87333885D02*
X115058896Y-87476742D01*
X115058896Y-87476742D02*
X115011277Y-87571980D01*
X115011277Y-87571980D02*
X114963658Y-87619600D01*
X114963658Y-87619600D02*
X114868420Y-87667219D01*
X114868420Y-87667219D02*
X114725563Y-87667219D01*
X114725563Y-87667219D02*
X114630325Y-87619600D01*
X114630325Y-87619600D02*
X114582706Y-87571980D01*
X114582706Y-87571980D02*
X114439849Y-87381504D01*
X114439849Y-87381504D02*
X114392230Y-87238647D01*
X114392230Y-87238647D02*
X114392230Y-87143409D01*
X113154134Y-86667219D02*
X112535087Y-86667219D01*
X112535087Y-86667219D02*
X112868420Y-87048171D01*
X112868420Y-87048171D02*
X112725563Y-87048171D01*
X112725563Y-87048171D02*
X112630325Y-87095790D01*
X112630325Y-87095790D02*
X112582706Y-87143409D01*
X112582706Y-87143409D02*
X112535087Y-87238647D01*
X112535087Y-87238647D02*
X112535087Y-87476742D01*
X112535087Y-87476742D02*
X112582706Y-87571980D01*
X112582706Y-87571980D02*
X112630325Y-87619600D01*
X112630325Y-87619600D02*
X112725563Y-87667219D01*
X112725563Y-87667219D02*
X113011277Y-87667219D01*
X113011277Y-87667219D02*
X113106515Y-87619600D01*
X113106515Y-87619600D02*
X113154134Y-87571980D01*
X112201753Y-87000552D02*
X111963658Y-87667219D01*
X111963658Y-87667219D02*
X111725563Y-87000552D01*
X111439848Y-86667219D02*
X110820801Y-86667219D01*
X110820801Y-86667219D02*
X111154134Y-87048171D01*
X111154134Y-87048171D02*
X111011277Y-87048171D01*
X111011277Y-87048171D02*
X110916039Y-87095790D01*
X110916039Y-87095790D02*
X110868420Y-87143409D01*
X110868420Y-87143409D02*
X110820801Y-87238647D01*
X110820801Y-87238647D02*
X110820801Y-87476742D01*
X110820801Y-87476742D02*
X110868420Y-87571980D01*
X110868420Y-87571980D02*
X110916039Y-87619600D01*
X110916039Y-87619600D02*
X111011277Y-87667219D01*
X111011277Y-87667219D02*
X111296991Y-87667219D01*
X111296991Y-87667219D02*
X111392229Y-87619600D01*
X111392229Y-87619600D02*
X111439848Y-87571980D01*
X109630324Y-87667219D02*
X109630324Y-87000552D01*
X109630324Y-87191028D02*
X109582705Y-87095790D01*
X109582705Y-87095790D02*
X109535086Y-87048171D01*
X109535086Y-87048171D02*
X109439848Y-87000552D01*
X109439848Y-87000552D02*
X109344610Y-87000552D01*
X108630324Y-87619600D02*
X108725562Y-87667219D01*
X108725562Y-87667219D02*
X108916038Y-87667219D01*
X108916038Y-87667219D02*
X109011276Y-87619600D01*
X109011276Y-87619600D02*
X109058895Y-87524361D01*
X109058895Y-87524361D02*
X109058895Y-87143409D01*
X109058895Y-87143409D02*
X109011276Y-87048171D01*
X109011276Y-87048171D02*
X108916038Y-87000552D01*
X108916038Y-87000552D02*
X108725562Y-87000552D01*
X108725562Y-87000552D02*
X108630324Y-87048171D01*
X108630324Y-87048171D02*
X108582705Y-87143409D01*
X108582705Y-87143409D02*
X108582705Y-87238647D01*
X108582705Y-87238647D02*
X109058895Y-87333885D01*
X107725562Y-87000552D02*
X107725562Y-87810076D01*
X107725562Y-87810076D02*
X107773181Y-87905314D01*
X107773181Y-87905314D02*
X107820800Y-87952933D01*
X107820800Y-87952933D02*
X107916038Y-88000552D01*
X107916038Y-88000552D02*
X108058895Y-88000552D01*
X108058895Y-88000552D02*
X108154133Y-87952933D01*
X107725562Y-87619600D02*
X107820800Y-87667219D01*
X107820800Y-87667219D02*
X108011276Y-87667219D01*
X108011276Y-87667219D02*
X108106514Y-87619600D01*
X108106514Y-87619600D02*
X108154133Y-87571980D01*
X108154133Y-87571980D02*
X108201752Y-87476742D01*
X108201752Y-87476742D02*
X108201752Y-87191028D01*
X108201752Y-87191028D02*
X108154133Y-87095790D01*
X108154133Y-87095790D02*
X108106514Y-87048171D01*
X108106514Y-87048171D02*
X108011276Y-87000552D01*
X108011276Y-87000552D02*
X107820800Y-87000552D01*
X107820800Y-87000552D02*
X107725562Y-87048171D01*
X106820800Y-87000552D02*
X106820800Y-87667219D01*
X107249371Y-87000552D02*
X107249371Y-87524361D01*
X107249371Y-87524361D02*
X107201752Y-87619600D01*
X107201752Y-87619600D02*
X107106514Y-87667219D01*
X107106514Y-87667219D02*
X106963657Y-87667219D01*
X106963657Y-87667219D02*
X106868419Y-87619600D01*
X106868419Y-87619600D02*
X106820800Y-87571980D01*
X106201752Y-87667219D02*
X106296990Y-87619600D01*
X106296990Y-87619600D02*
X106344609Y-87524361D01*
X106344609Y-87524361D02*
X106344609Y-86667219D01*
X105392228Y-87667219D02*
X105392228Y-87143409D01*
X105392228Y-87143409D02*
X105439847Y-87048171D01*
X105439847Y-87048171D02*
X105535085Y-87000552D01*
X105535085Y-87000552D02*
X105725561Y-87000552D01*
X105725561Y-87000552D02*
X105820799Y-87048171D01*
X105392228Y-87619600D02*
X105487466Y-87667219D01*
X105487466Y-87667219D02*
X105725561Y-87667219D01*
X105725561Y-87667219D02*
X105820799Y-87619600D01*
X105820799Y-87619600D02*
X105868418Y-87524361D01*
X105868418Y-87524361D02*
X105868418Y-87429123D01*
X105868418Y-87429123D02*
X105820799Y-87333885D01*
X105820799Y-87333885D02*
X105725561Y-87286266D01*
X105725561Y-87286266D02*
X105487466Y-87286266D01*
X105487466Y-87286266D02*
X105392228Y-87238647D01*
X105058894Y-87000552D02*
X104677942Y-87000552D01*
X104916037Y-86667219D02*
X104916037Y-87524361D01*
X104916037Y-87524361D02*
X104868418Y-87619600D01*
X104868418Y-87619600D02*
X104773180Y-87667219D01*
X104773180Y-87667219D02*
X104677942Y-87667219D01*
X104201751Y-87667219D02*
X104296989Y-87619600D01*
X104296989Y-87619600D02*
X104344608Y-87571980D01*
X104344608Y-87571980D02*
X104392227Y-87476742D01*
X104392227Y-87476742D02*
X104392227Y-87191028D01*
X104392227Y-87191028D02*
X104344608Y-87095790D01*
X104344608Y-87095790D02*
X104296989Y-87048171D01*
X104296989Y-87048171D02*
X104201751Y-87000552D01*
X104201751Y-87000552D02*
X104058894Y-87000552D01*
X104058894Y-87000552D02*
X103963656Y-87048171D01*
X103963656Y-87048171D02*
X103916037Y-87095790D01*
X103916037Y-87095790D02*
X103868418Y-87191028D01*
X103868418Y-87191028D02*
X103868418Y-87476742D01*
X103868418Y-87476742D02*
X103916037Y-87571980D01*
X103916037Y-87571980D02*
X103963656Y-87619600D01*
X103963656Y-87619600D02*
X104058894Y-87667219D01*
X104058894Y-87667219D02*
X104201751Y-87667219D01*
X103439846Y-87667219D02*
X103439846Y-87000552D01*
X103439846Y-87191028D02*
X103392227Y-87095790D01*
X103392227Y-87095790D02*
X103344608Y-87048171D01*
X103344608Y-87048171D02*
X103249370Y-87000552D01*
X103249370Y-87000552D02*
X103154132Y-87000552D01*
X123201755Y-57800552D02*
X123201755Y-58610076D01*
X123201755Y-58610076D02*
X123249374Y-58705314D01*
X123249374Y-58705314D02*
X123296993Y-58752933D01*
X123296993Y-58752933D02*
X123392231Y-58800552D01*
X123392231Y-58800552D02*
X123535088Y-58800552D01*
X123535088Y-58800552D02*
X123630326Y-58752933D01*
X123201755Y-58419600D02*
X123296993Y-58467219D01*
X123296993Y-58467219D02*
X123487469Y-58467219D01*
X123487469Y-58467219D02*
X123582707Y-58419600D01*
X123582707Y-58419600D02*
X123630326Y-58371980D01*
X123630326Y-58371980D02*
X123677945Y-58276742D01*
X123677945Y-58276742D02*
X123677945Y-57991028D01*
X123677945Y-57991028D02*
X123630326Y-57895790D01*
X123630326Y-57895790D02*
X123582707Y-57848171D01*
X123582707Y-57848171D02*
X123487469Y-57800552D01*
X123487469Y-57800552D02*
X123296993Y-57800552D01*
X123296993Y-57800552D02*
X123201755Y-57848171D01*
X122725564Y-58467219D02*
X122725564Y-57800552D01*
X122725564Y-57467219D02*
X122773183Y-57514838D01*
X122773183Y-57514838D02*
X122725564Y-57562457D01*
X122725564Y-57562457D02*
X122677945Y-57514838D01*
X122677945Y-57514838D02*
X122725564Y-57467219D01*
X122725564Y-57467219D02*
X122725564Y-57562457D01*
X122392231Y-57800552D02*
X122011279Y-57800552D01*
X122249374Y-57467219D02*
X122249374Y-58324361D01*
X122249374Y-58324361D02*
X122201755Y-58419600D01*
X122201755Y-58419600D02*
X122106517Y-58467219D01*
X122106517Y-58467219D02*
X122011279Y-58467219D01*
X121677945Y-58467219D02*
X121677945Y-57467219D01*
X121249374Y-58467219D02*
X121249374Y-57943409D01*
X121249374Y-57943409D02*
X121296993Y-57848171D01*
X121296993Y-57848171D02*
X121392231Y-57800552D01*
X121392231Y-57800552D02*
X121535088Y-57800552D01*
X121535088Y-57800552D02*
X121630326Y-57848171D01*
X121630326Y-57848171D02*
X121677945Y-57895790D01*
X120344612Y-57800552D02*
X120344612Y-58467219D01*
X120773183Y-57800552D02*
X120773183Y-58324361D01*
X120773183Y-58324361D02*
X120725564Y-58419600D01*
X120725564Y-58419600D02*
X120630326Y-58467219D01*
X120630326Y-58467219D02*
X120487469Y-58467219D01*
X120487469Y-58467219D02*
X120392231Y-58419600D01*
X120392231Y-58419600D02*
X120344612Y-58371980D01*
X119868421Y-58467219D02*
X119868421Y-57467219D01*
X119868421Y-57848171D02*
X119773183Y-57800552D01*
X119773183Y-57800552D02*
X119582707Y-57800552D01*
X119582707Y-57800552D02*
X119487469Y-57848171D01*
X119487469Y-57848171D02*
X119439850Y-57895790D01*
X119439850Y-57895790D02*
X119392231Y-57991028D01*
X119392231Y-57991028D02*
X119392231Y-58276742D01*
X119392231Y-58276742D02*
X119439850Y-58371980D01*
X119439850Y-58371980D02*
X119487469Y-58419600D01*
X119487469Y-58419600D02*
X119582707Y-58467219D01*
X119582707Y-58467219D02*
X119773183Y-58467219D01*
X119773183Y-58467219D02*
X119868421Y-58419600D01*
X118963659Y-58371980D02*
X118916040Y-58419600D01*
X118916040Y-58419600D02*
X118963659Y-58467219D01*
X118963659Y-58467219D02*
X119011278Y-58419600D01*
X119011278Y-58419600D02*
X118963659Y-58371980D01*
X118963659Y-58371980D02*
X118963659Y-58467219D01*
X118058898Y-58419600D02*
X118154136Y-58467219D01*
X118154136Y-58467219D02*
X118344612Y-58467219D01*
X118344612Y-58467219D02*
X118439850Y-58419600D01*
X118439850Y-58419600D02*
X118487469Y-58371980D01*
X118487469Y-58371980D02*
X118535088Y-58276742D01*
X118535088Y-58276742D02*
X118535088Y-57991028D01*
X118535088Y-57991028D02*
X118487469Y-57895790D01*
X118487469Y-57895790D02*
X118439850Y-57848171D01*
X118439850Y-57848171D02*
X118344612Y-57800552D01*
X118344612Y-57800552D02*
X118154136Y-57800552D01*
X118154136Y-57800552D02*
X118058898Y-57848171D01*
X117487469Y-58467219D02*
X117582707Y-58419600D01*
X117582707Y-58419600D02*
X117630326Y-58371980D01*
X117630326Y-58371980D02*
X117677945Y-58276742D01*
X117677945Y-58276742D02*
X117677945Y-57991028D01*
X117677945Y-57991028D02*
X117630326Y-57895790D01*
X117630326Y-57895790D02*
X117582707Y-57848171D01*
X117582707Y-57848171D02*
X117487469Y-57800552D01*
X117487469Y-57800552D02*
X117344612Y-57800552D01*
X117344612Y-57800552D02*
X117249374Y-57848171D01*
X117249374Y-57848171D02*
X117201755Y-57895790D01*
X117201755Y-57895790D02*
X117154136Y-57991028D01*
X117154136Y-57991028D02*
X117154136Y-58276742D01*
X117154136Y-58276742D02*
X117201755Y-58371980D01*
X117201755Y-58371980D02*
X117249374Y-58419600D01*
X117249374Y-58419600D02*
X117344612Y-58467219D01*
X117344612Y-58467219D02*
X117487469Y-58467219D01*
X116725564Y-58467219D02*
X116725564Y-57800552D01*
X116725564Y-57895790D02*
X116677945Y-57848171D01*
X116677945Y-57848171D02*
X116582707Y-57800552D01*
X116582707Y-57800552D02*
X116439850Y-57800552D01*
X116439850Y-57800552D02*
X116344612Y-57848171D01*
X116344612Y-57848171D02*
X116296993Y-57943409D01*
X116296993Y-57943409D02*
X116296993Y-58467219D01*
X116296993Y-57943409D02*
X116249374Y-57848171D01*
X116249374Y-57848171D02*
X116154136Y-57800552D01*
X116154136Y-57800552D02*
X116011279Y-57800552D01*
X116011279Y-57800552D02*
X115916040Y-57848171D01*
X115916040Y-57848171D02*
X115868421Y-57943409D01*
X115868421Y-57943409D02*
X115868421Y-58467219D01*
X114677946Y-57419600D02*
X115535088Y-58705314D01*
X114344612Y-57800552D02*
X114344612Y-58467219D01*
X114344612Y-57895790D02*
X114296993Y-57848171D01*
X114296993Y-57848171D02*
X114201755Y-57800552D01*
X114201755Y-57800552D02*
X114058898Y-57800552D01*
X114058898Y-57800552D02*
X113963660Y-57848171D01*
X113963660Y-57848171D02*
X113916041Y-57943409D01*
X113916041Y-57943409D02*
X113916041Y-58467219D01*
X113011279Y-58467219D02*
X113011279Y-57943409D01*
X113011279Y-57943409D02*
X113058898Y-57848171D01*
X113058898Y-57848171D02*
X113154136Y-57800552D01*
X113154136Y-57800552D02*
X113344612Y-57800552D01*
X113344612Y-57800552D02*
X113439850Y-57848171D01*
X113011279Y-58419600D02*
X113106517Y-58467219D01*
X113106517Y-58467219D02*
X113344612Y-58467219D01*
X113344612Y-58467219D02*
X113439850Y-58419600D01*
X113439850Y-58419600D02*
X113487469Y-58324361D01*
X113487469Y-58324361D02*
X113487469Y-58229123D01*
X113487469Y-58229123D02*
X113439850Y-58133885D01*
X113439850Y-58133885D02*
X113344612Y-58086266D01*
X113344612Y-58086266D02*
X113106517Y-58086266D01*
X113106517Y-58086266D02*
X113011279Y-58038647D01*
X112677945Y-57800552D02*
X112296993Y-57800552D01*
X112535088Y-57467219D02*
X112535088Y-58324361D01*
X112535088Y-58324361D02*
X112487469Y-58419600D01*
X112487469Y-58419600D02*
X112392231Y-58467219D01*
X112392231Y-58467219D02*
X112296993Y-58467219D01*
X111963659Y-58467219D02*
X111963659Y-57467219D01*
X111535088Y-58467219D02*
X111535088Y-57943409D01*
X111535088Y-57943409D02*
X111582707Y-57848171D01*
X111582707Y-57848171D02*
X111677945Y-57800552D01*
X111677945Y-57800552D02*
X111820802Y-57800552D01*
X111820802Y-57800552D02*
X111916040Y-57848171D01*
X111916040Y-57848171D02*
X111963659Y-57895790D01*
X110630326Y-58467219D02*
X110630326Y-57943409D01*
X110630326Y-57943409D02*
X110677945Y-57848171D01*
X110677945Y-57848171D02*
X110773183Y-57800552D01*
X110773183Y-57800552D02*
X110963659Y-57800552D01*
X110963659Y-57800552D02*
X111058897Y-57848171D01*
X110630326Y-58419600D02*
X110725564Y-58467219D01*
X110725564Y-58467219D02*
X110963659Y-58467219D01*
X110963659Y-58467219D02*
X111058897Y-58419600D01*
X111058897Y-58419600D02*
X111106516Y-58324361D01*
X111106516Y-58324361D02*
X111106516Y-58229123D01*
X111106516Y-58229123D02*
X111058897Y-58133885D01*
X111058897Y-58133885D02*
X110963659Y-58086266D01*
X110963659Y-58086266D02*
X110725564Y-58086266D01*
X110725564Y-58086266D02*
X110630326Y-58038647D01*
X110154135Y-57800552D02*
X110154135Y-58467219D01*
X110154135Y-57895790D02*
X110106516Y-57848171D01*
X110106516Y-57848171D02*
X110011278Y-57800552D01*
X110011278Y-57800552D02*
X109868421Y-57800552D01*
X109868421Y-57800552D02*
X109773183Y-57848171D01*
X109773183Y-57848171D02*
X109725564Y-57943409D01*
X109725564Y-57943409D02*
X109725564Y-58467219D01*
X109296992Y-58419600D02*
X109201754Y-58467219D01*
X109201754Y-58467219D02*
X109011278Y-58467219D01*
X109011278Y-58467219D02*
X108916040Y-58419600D01*
X108916040Y-58419600D02*
X108868421Y-58324361D01*
X108868421Y-58324361D02*
X108868421Y-58276742D01*
X108868421Y-58276742D02*
X108916040Y-58181504D01*
X108916040Y-58181504D02*
X109011278Y-58133885D01*
X109011278Y-58133885D02*
X109154135Y-58133885D01*
X109154135Y-58133885D02*
X109249373Y-58086266D01*
X109249373Y-58086266D02*
X109296992Y-57991028D01*
X109296992Y-57991028D02*
X109296992Y-57943409D01*
X109296992Y-57943409D02*
X109249373Y-57848171D01*
X109249373Y-57848171D02*
X109154135Y-57800552D01*
X109154135Y-57800552D02*
X109011278Y-57800552D01*
X109011278Y-57800552D02*
X108916040Y-57848171D01*
X108439849Y-58086266D02*
X107677945Y-58086266D01*
X107249373Y-58419600D02*
X107154135Y-58467219D01*
X107154135Y-58467219D02*
X106963659Y-58467219D01*
X106963659Y-58467219D02*
X106868421Y-58419600D01*
X106868421Y-58419600D02*
X106820802Y-58324361D01*
X106820802Y-58324361D02*
X106820802Y-58276742D01*
X106820802Y-58276742D02*
X106868421Y-58181504D01*
X106868421Y-58181504D02*
X106963659Y-58133885D01*
X106963659Y-58133885D02*
X107106516Y-58133885D01*
X107106516Y-58133885D02*
X107201754Y-58086266D01*
X107201754Y-58086266D02*
X107249373Y-57991028D01*
X107249373Y-57991028D02*
X107249373Y-57943409D01*
X107249373Y-57943409D02*
X107201754Y-57848171D01*
X107201754Y-57848171D02*
X107106516Y-57800552D01*
X107106516Y-57800552D02*
X106963659Y-57800552D01*
X106963659Y-57800552D02*
X106868421Y-57848171D01*
X106487468Y-57800552D02*
X106249373Y-58467219D01*
X106011278Y-57800552D02*
X106249373Y-58467219D01*
X106249373Y-58467219D02*
X106344611Y-58705314D01*
X106344611Y-58705314D02*
X106392230Y-58752933D01*
X106392230Y-58752933D02*
X106487468Y-58800552D01*
X105677944Y-58419600D02*
X105582706Y-58467219D01*
X105582706Y-58467219D02*
X105392230Y-58467219D01*
X105392230Y-58467219D02*
X105296992Y-58419600D01*
X105296992Y-58419600D02*
X105249373Y-58324361D01*
X105249373Y-58324361D02*
X105249373Y-58276742D01*
X105249373Y-58276742D02*
X105296992Y-58181504D01*
X105296992Y-58181504D02*
X105392230Y-58133885D01*
X105392230Y-58133885D02*
X105535087Y-58133885D01*
X105535087Y-58133885D02*
X105630325Y-58086266D01*
X105630325Y-58086266D02*
X105677944Y-57991028D01*
X105677944Y-57991028D02*
X105677944Y-57943409D01*
X105677944Y-57943409D02*
X105630325Y-57848171D01*
X105630325Y-57848171D02*
X105535087Y-57800552D01*
X105535087Y-57800552D02*
X105392230Y-57800552D01*
X105392230Y-57800552D02*
X105296992Y-57848171D01*
X104963658Y-57800552D02*
X104582706Y-57800552D01*
X104820801Y-57467219D02*
X104820801Y-58324361D01*
X104820801Y-58324361D02*
X104773182Y-58419600D01*
X104773182Y-58419600D02*
X104677944Y-58467219D01*
X104677944Y-58467219D02*
X104582706Y-58467219D01*
X103868420Y-58419600D02*
X103963658Y-58467219D01*
X103963658Y-58467219D02*
X104154134Y-58467219D01*
X104154134Y-58467219D02*
X104249372Y-58419600D01*
X104249372Y-58419600D02*
X104296991Y-58324361D01*
X104296991Y-58324361D02*
X104296991Y-57943409D01*
X104296991Y-57943409D02*
X104249372Y-57848171D01*
X104249372Y-57848171D02*
X104154134Y-57800552D01*
X104154134Y-57800552D02*
X103963658Y-57800552D01*
X103963658Y-57800552D02*
X103868420Y-57848171D01*
X103868420Y-57848171D02*
X103820801Y-57943409D01*
X103820801Y-57943409D02*
X103820801Y-58038647D01*
X103820801Y-58038647D02*
X104296991Y-58133885D01*
X103392229Y-58467219D02*
X103392229Y-57800552D01*
X103392229Y-57895790D02*
X103344610Y-57848171D01*
X103344610Y-57848171D02*
X103249372Y-57800552D01*
X103249372Y-57800552D02*
X103106515Y-57800552D01*
X103106515Y-57800552D02*
X103011277Y-57848171D01*
X103011277Y-57848171D02*
X102963658Y-57943409D01*
X102963658Y-57943409D02*
X102963658Y-58467219D01*
X102963658Y-57943409D02*
X102916039Y-57848171D01*
X102916039Y-57848171D02*
X102820801Y-57800552D01*
X102820801Y-57800552D02*
X102677944Y-57800552D01*
X102677944Y-57800552D02*
X102582705Y-57848171D01*
X102582705Y-57848171D02*
X102535086Y-57943409D01*
X102535086Y-57943409D02*
X102535086Y-58467219D01*
X102106515Y-58419600D02*
X102011277Y-58467219D01*
X102011277Y-58467219D02*
X101820801Y-58467219D01*
X101820801Y-58467219D02*
X101725563Y-58419600D01*
X101725563Y-58419600D02*
X101677944Y-58324361D01*
X101677944Y-58324361D02*
X101677944Y-58276742D01*
X101677944Y-58276742D02*
X101725563Y-58181504D01*
X101725563Y-58181504D02*
X101820801Y-58133885D01*
X101820801Y-58133885D02*
X101963658Y-58133885D01*
X101963658Y-58133885D02*
X102058896Y-58086266D01*
X102058896Y-58086266D02*
X102106515Y-57991028D01*
X102106515Y-57991028D02*
X102106515Y-57943409D01*
X102106515Y-57943409D02*
X102058896Y-57848171D01*
X102058896Y-57848171D02*
X101963658Y-57800552D01*
X101963658Y-57800552D02*
X101820801Y-57800552D01*
X101820801Y-57800552D02*
X101725563Y-57848171D01*
X130906517Y-56667219D02*
X131477945Y-56667219D01*
X131192231Y-56667219D02*
X131192231Y-55667219D01*
X131192231Y-55667219D02*
X131287469Y-55810076D01*
X131287469Y-55810076D02*
X131382707Y-55905314D01*
X131382707Y-55905314D02*
X131477945Y-55952933D01*
X130525564Y-55762457D02*
X130477945Y-55714838D01*
X130477945Y-55714838D02*
X130382707Y-55667219D01*
X130382707Y-55667219D02*
X130144612Y-55667219D01*
X130144612Y-55667219D02*
X130049374Y-55714838D01*
X130049374Y-55714838D02*
X130001755Y-55762457D01*
X130001755Y-55762457D02*
X129954136Y-55857695D01*
X129954136Y-55857695D02*
X129954136Y-55952933D01*
X129954136Y-55952933D02*
X130001755Y-56095790D01*
X130001755Y-56095790D02*
X130573183Y-56667219D01*
X130573183Y-56667219D02*
X129954136Y-56667219D01*
X129668421Y-55667219D02*
X129335088Y-56667219D01*
X129335088Y-56667219D02*
X129001755Y-55667219D01*
X127573183Y-56143409D02*
X127430326Y-56191028D01*
X127430326Y-56191028D02*
X127382707Y-56238647D01*
X127382707Y-56238647D02*
X127335088Y-56333885D01*
X127335088Y-56333885D02*
X127335088Y-56476742D01*
X127335088Y-56476742D02*
X127382707Y-56571980D01*
X127382707Y-56571980D02*
X127430326Y-56619600D01*
X127430326Y-56619600D02*
X127525564Y-56667219D01*
X127525564Y-56667219D02*
X127906516Y-56667219D01*
X127906516Y-56667219D02*
X127906516Y-55667219D01*
X127906516Y-55667219D02*
X127573183Y-55667219D01*
X127573183Y-55667219D02*
X127477945Y-55714838D01*
X127477945Y-55714838D02*
X127430326Y-55762457D01*
X127430326Y-55762457D02*
X127382707Y-55857695D01*
X127382707Y-55857695D02*
X127382707Y-55952933D01*
X127382707Y-55952933D02*
X127430326Y-56048171D01*
X127430326Y-56048171D02*
X127477945Y-56095790D01*
X127477945Y-56095790D02*
X127573183Y-56143409D01*
X127573183Y-56143409D02*
X127906516Y-56143409D01*
X126763659Y-56667219D02*
X126858897Y-56619600D01*
X126858897Y-56619600D02*
X126906516Y-56571980D01*
X126906516Y-56571980D02*
X126954135Y-56476742D01*
X126954135Y-56476742D02*
X126954135Y-56191028D01*
X126954135Y-56191028D02*
X126906516Y-56095790D01*
X126906516Y-56095790D02*
X126858897Y-56048171D01*
X126858897Y-56048171D02*
X126763659Y-56000552D01*
X126763659Y-56000552D02*
X126620802Y-56000552D01*
X126620802Y-56000552D02*
X126525564Y-56048171D01*
X126525564Y-56048171D02*
X126477945Y-56095790D01*
X126477945Y-56095790D02*
X126430326Y-56191028D01*
X126430326Y-56191028D02*
X126430326Y-56476742D01*
X126430326Y-56476742D02*
X126477945Y-56571980D01*
X126477945Y-56571980D02*
X126525564Y-56619600D01*
X126525564Y-56619600D02*
X126620802Y-56667219D01*
X126620802Y-56667219D02*
X126763659Y-56667219D01*
X125858897Y-56667219D02*
X125954135Y-56619600D01*
X125954135Y-56619600D02*
X126001754Y-56571980D01*
X126001754Y-56571980D02*
X126049373Y-56476742D01*
X126049373Y-56476742D02*
X126049373Y-56191028D01*
X126049373Y-56191028D02*
X126001754Y-56095790D01*
X126001754Y-56095790D02*
X125954135Y-56048171D01*
X125954135Y-56048171D02*
X125858897Y-56000552D01*
X125858897Y-56000552D02*
X125716040Y-56000552D01*
X125716040Y-56000552D02*
X125620802Y-56048171D01*
X125620802Y-56048171D02*
X125573183Y-56095790D01*
X125573183Y-56095790D02*
X125525564Y-56191028D01*
X125525564Y-56191028D02*
X125525564Y-56476742D01*
X125525564Y-56476742D02*
X125573183Y-56571980D01*
X125573183Y-56571980D02*
X125620802Y-56619600D01*
X125620802Y-56619600D02*
X125716040Y-56667219D01*
X125716040Y-56667219D02*
X125858897Y-56667219D01*
X125144611Y-56619600D02*
X125049373Y-56667219D01*
X125049373Y-56667219D02*
X124858897Y-56667219D01*
X124858897Y-56667219D02*
X124763659Y-56619600D01*
X124763659Y-56619600D02*
X124716040Y-56524361D01*
X124716040Y-56524361D02*
X124716040Y-56476742D01*
X124716040Y-56476742D02*
X124763659Y-56381504D01*
X124763659Y-56381504D02*
X124858897Y-56333885D01*
X124858897Y-56333885D02*
X125001754Y-56333885D01*
X125001754Y-56333885D02*
X125096992Y-56286266D01*
X125096992Y-56286266D02*
X125144611Y-56191028D01*
X125144611Y-56191028D02*
X125144611Y-56143409D01*
X125144611Y-56143409D02*
X125096992Y-56048171D01*
X125096992Y-56048171D02*
X125001754Y-56000552D01*
X125001754Y-56000552D02*
X124858897Y-56000552D01*
X124858897Y-56000552D02*
X124763659Y-56048171D01*
X124430325Y-56000552D02*
X124049373Y-56000552D01*
X124287468Y-55667219D02*
X124287468Y-56524361D01*
X124287468Y-56524361D02*
X124239849Y-56619600D01*
X124239849Y-56619600D02*
X124144611Y-56667219D01*
X124144611Y-56667219D02*
X124049373Y-56667219D01*
D12*
X136983584Y-79739638D02*
X137650251Y-78787257D01*
X138126441Y-79739638D02*
X138126441Y-77739638D01*
X138126441Y-77739638D02*
X137364536Y-77739638D01*
X137364536Y-77739638D02*
X137174060Y-77834876D01*
X137174060Y-77834876D02*
X137078822Y-77930114D01*
X137078822Y-77930114D02*
X136983584Y-78120590D01*
X136983584Y-78120590D02*
X136983584Y-78406304D01*
X136983584Y-78406304D02*
X137078822Y-78596780D01*
X137078822Y-78596780D02*
X137174060Y-78692019D01*
X137174060Y-78692019D02*
X137364536Y-78787257D01*
X137364536Y-78787257D02*
X138126441Y-78787257D01*
X136412155Y-77739638D02*
X135269298Y-77739638D01*
X135840727Y-79739638D02*
X135840727Y-77739638D01*
X133459774Y-79549161D02*
X133555012Y-79644400D01*
X133555012Y-79644400D02*
X133840726Y-79739638D01*
X133840726Y-79739638D02*
X134031202Y-79739638D01*
X134031202Y-79739638D02*
X134316917Y-79644400D01*
X134316917Y-79644400D02*
X134507393Y-79453923D01*
X134507393Y-79453923D02*
X134602631Y-79263447D01*
X134602631Y-79263447D02*
X134697869Y-78882495D01*
X134697869Y-78882495D02*
X134697869Y-78596780D01*
X134697869Y-78596780D02*
X134602631Y-78215828D01*
X134602631Y-78215828D02*
X134507393Y-78025352D01*
X134507393Y-78025352D02*
X134316917Y-77834876D01*
X134316917Y-77834876D02*
X134031202Y-77739638D01*
X134031202Y-77739638D02*
X133840726Y-77739638D01*
X133840726Y-77739638D02*
X133555012Y-77834876D01*
X133555012Y-77834876D02*
X133459774Y-77930114D01*
D13*
X118242857Y-75359580D02*
X118290476Y-75407200D01*
X118290476Y-75407200D02*
X118433333Y-75454819D01*
X118433333Y-75454819D02*
X118528571Y-75454819D01*
X118528571Y-75454819D02*
X118671428Y-75407200D01*
X118671428Y-75407200D02*
X118766666Y-75311961D01*
X118766666Y-75311961D02*
X118814285Y-75216723D01*
X118814285Y-75216723D02*
X118861904Y-75026247D01*
X118861904Y-75026247D02*
X118861904Y-74883390D01*
X118861904Y-74883390D02*
X118814285Y-74692914D01*
X118814285Y-74692914D02*
X118766666Y-74597676D01*
X118766666Y-74597676D02*
X118671428Y-74502438D01*
X118671428Y-74502438D02*
X118528571Y-74454819D01*
X118528571Y-74454819D02*
X118433333Y-74454819D01*
X118433333Y-74454819D02*
X118290476Y-74502438D01*
X118290476Y-74502438D02*
X118242857Y-74550057D01*
X117290476Y-75454819D02*
X117861904Y-75454819D01*
X117576190Y-75454819D02*
X117576190Y-74454819D01*
X117576190Y-74454819D02*
X117671428Y-74597676D01*
X117671428Y-74597676D02*
X117766666Y-74692914D01*
X117766666Y-74692914D02*
X117861904Y-74740533D01*
X116671428Y-74454819D02*
X116576190Y-74454819D01*
X116576190Y-74454819D02*
X116480952Y-74502438D01*
X116480952Y-74502438D02*
X116433333Y-74550057D01*
X116433333Y-74550057D02*
X116385714Y-74645295D01*
X116385714Y-74645295D02*
X116338095Y-74835771D01*
X116338095Y-74835771D02*
X116338095Y-75073866D01*
X116338095Y-75073866D02*
X116385714Y-75264342D01*
X116385714Y-75264342D02*
X116433333Y-75359580D01*
X116433333Y-75359580D02*
X116480952Y-75407200D01*
X116480952Y-75407200D02*
X116576190Y-75454819D01*
X116576190Y-75454819D02*
X116671428Y-75454819D01*
X116671428Y-75454819D02*
X116766666Y-75407200D01*
X116766666Y-75407200D02*
X116814285Y-75359580D01*
X116814285Y-75359580D02*
X116861904Y-75264342D01*
X116861904Y-75264342D02*
X116909523Y-75073866D01*
X116909523Y-75073866D02*
X116909523Y-74835771D01*
X116909523Y-74835771D02*
X116861904Y-74645295D01*
X116861904Y-74645295D02*
X116814285Y-74550057D01*
X116814285Y-74550057D02*
X116766666Y-74502438D01*
X116766666Y-74502438D02*
X116671428Y-74454819D01*
X116538094Y-84054819D02*
X116538094Y-83054819D01*
X116538094Y-83054819D02*
X116299999Y-83054819D01*
X116299999Y-83054819D02*
X116157142Y-83102438D01*
X116157142Y-83102438D02*
X116061904Y-83197676D01*
X116061904Y-83197676D02*
X116014285Y-83292914D01*
X116014285Y-83292914D02*
X115966666Y-83483390D01*
X115966666Y-83483390D02*
X115966666Y-83626247D01*
X115966666Y-83626247D02*
X116014285Y-83816723D01*
X116014285Y-83816723D02*
X116061904Y-83911961D01*
X116061904Y-83911961D02*
X116157142Y-84007200D01*
X116157142Y-84007200D02*
X116299999Y-84054819D01*
X116299999Y-84054819D02*
X116538094Y-84054819D01*
X115109523Y-83388152D02*
X115109523Y-84054819D01*
X115347618Y-83007200D02*
X115585713Y-83721485D01*
X115585713Y-83721485D02*
X114966666Y-83721485D01*
X123317857Y-76854580D02*
X123365476Y-76902200D01*
X123365476Y-76902200D02*
X123508333Y-76949819D01*
X123508333Y-76949819D02*
X123603571Y-76949819D01*
X123603571Y-76949819D02*
X123746428Y-76902200D01*
X123746428Y-76902200D02*
X123841666Y-76806961D01*
X123841666Y-76806961D02*
X123889285Y-76711723D01*
X123889285Y-76711723D02*
X123936904Y-76521247D01*
X123936904Y-76521247D02*
X123936904Y-76378390D01*
X123936904Y-76378390D02*
X123889285Y-76187914D01*
X123889285Y-76187914D02*
X123841666Y-76092676D01*
X123841666Y-76092676D02*
X123746428Y-75997438D01*
X123746428Y-75997438D02*
X123603571Y-75949819D01*
X123603571Y-75949819D02*
X123508333Y-75949819D01*
X123508333Y-75949819D02*
X123365476Y-75997438D01*
X123365476Y-75997438D02*
X123317857Y-76045057D01*
X122365476Y-76949819D02*
X122936904Y-76949819D01*
X122651190Y-76949819D02*
X122651190Y-75949819D01*
X122651190Y-75949819D02*
X122746428Y-76092676D01*
X122746428Y-76092676D02*
X122841666Y-76187914D01*
X122841666Y-76187914D02*
X122936904Y-76235533D01*
X121508333Y-75949819D02*
X121698809Y-75949819D01*
X121698809Y-75949819D02*
X121794047Y-75997438D01*
X121794047Y-75997438D02*
X121841666Y-76045057D01*
X121841666Y-76045057D02*
X121936904Y-76187914D01*
X121936904Y-76187914D02*
X121984523Y-76378390D01*
X121984523Y-76378390D02*
X121984523Y-76759342D01*
X121984523Y-76759342D02*
X121936904Y-76854580D01*
X121936904Y-76854580D02*
X121889285Y-76902200D01*
X121889285Y-76902200D02*
X121794047Y-76949819D01*
X121794047Y-76949819D02*
X121603571Y-76949819D01*
X121603571Y-76949819D02*
X121508333Y-76902200D01*
X121508333Y-76902200D02*
X121460714Y-76854580D01*
X121460714Y-76854580D02*
X121413095Y-76759342D01*
X121413095Y-76759342D02*
X121413095Y-76521247D01*
X121413095Y-76521247D02*
X121460714Y-76426009D01*
X121460714Y-76426009D02*
X121508333Y-76378390D01*
X121508333Y-76378390D02*
X121603571Y-76330771D01*
X121603571Y-76330771D02*
X121794047Y-76330771D01*
X121794047Y-76330771D02*
X121889285Y-76378390D01*
X121889285Y-76378390D02*
X121936904Y-76426009D01*
X121936904Y-76426009D02*
X121984523Y-76521247D01*
X111361904Y-84054819D02*
X111361904Y-84864342D01*
X111361904Y-84864342D02*
X111314285Y-84959580D01*
X111314285Y-84959580D02*
X111266666Y-85007200D01*
X111266666Y-85007200D02*
X111171428Y-85054819D01*
X111171428Y-85054819D02*
X110980952Y-85054819D01*
X110980952Y-85054819D02*
X110885714Y-85007200D01*
X110885714Y-85007200D02*
X110838095Y-84959580D01*
X110838095Y-84959580D02*
X110790476Y-84864342D01*
X110790476Y-84864342D02*
X110790476Y-84054819D01*
X110409523Y-84054819D02*
X109790476Y-84054819D01*
X109790476Y-84054819D02*
X110123809Y-84435771D01*
X110123809Y-84435771D02*
X109980952Y-84435771D01*
X109980952Y-84435771D02*
X109885714Y-84483390D01*
X109885714Y-84483390D02*
X109838095Y-84531009D01*
X109838095Y-84531009D02*
X109790476Y-84626247D01*
X109790476Y-84626247D02*
X109790476Y-84864342D01*
X109790476Y-84864342D02*
X109838095Y-84959580D01*
X109838095Y-84959580D02*
X109885714Y-85007200D01*
X109885714Y-85007200D02*
X109980952Y-85054819D01*
X109980952Y-85054819D02*
X110266666Y-85054819D01*
X110266666Y-85054819D02*
X110361904Y-85007200D01*
X110361904Y-85007200D02*
X110409523Y-84959580D01*
X122366666Y-82654819D02*
X122699999Y-82178628D01*
X122938094Y-82654819D02*
X122938094Y-81654819D01*
X122938094Y-81654819D02*
X122557142Y-81654819D01*
X122557142Y-81654819D02*
X122461904Y-81702438D01*
X122461904Y-81702438D02*
X122414285Y-81750057D01*
X122414285Y-81750057D02*
X122366666Y-81845295D01*
X122366666Y-81845295D02*
X122366666Y-81988152D01*
X122366666Y-81988152D02*
X122414285Y-82083390D01*
X122414285Y-82083390D02*
X122461904Y-82131009D01*
X122461904Y-82131009D02*
X122557142Y-82178628D01*
X122557142Y-82178628D02*
X122938094Y-82178628D01*
X122033332Y-81654819D02*
X121366666Y-81654819D01*
X121366666Y-81654819D02*
X121795237Y-82654819D01*
X109895238Y-78150057D02*
X109990476Y-78102438D01*
X109990476Y-78102438D02*
X110085714Y-78007200D01*
X110085714Y-78007200D02*
X110228571Y-77864342D01*
X110228571Y-77864342D02*
X110323809Y-77816723D01*
X110323809Y-77816723D02*
X110419047Y-77816723D01*
X110371428Y-78054819D02*
X110466666Y-78007200D01*
X110466666Y-78007200D02*
X110561904Y-77911961D01*
X110561904Y-77911961D02*
X110609523Y-77721485D01*
X110609523Y-77721485D02*
X110609523Y-77388152D01*
X110609523Y-77388152D02*
X110561904Y-77197676D01*
X110561904Y-77197676D02*
X110466666Y-77102438D01*
X110466666Y-77102438D02*
X110371428Y-77054819D01*
X110371428Y-77054819D02*
X110180952Y-77054819D01*
X110180952Y-77054819D02*
X110085714Y-77102438D01*
X110085714Y-77102438D02*
X109990476Y-77197676D01*
X109990476Y-77197676D02*
X109942857Y-77388152D01*
X109942857Y-77388152D02*
X109942857Y-77721485D01*
X109942857Y-77721485D02*
X109990476Y-77911961D01*
X109990476Y-77911961D02*
X110085714Y-78007200D01*
X110085714Y-78007200D02*
X110180952Y-78054819D01*
X110180952Y-78054819D02*
X110371428Y-78054819D01*
X108990476Y-78054819D02*
X109561904Y-78054819D01*
X109276190Y-78054819D02*
X109276190Y-77054819D01*
X109276190Y-77054819D02*
X109371428Y-77197676D01*
X109371428Y-77197676D02*
X109466666Y-77292914D01*
X109466666Y-77292914D02*
X109561904Y-77340533D01*
X135788094Y-66992319D02*
X135788094Y-65992319D01*
X135788094Y-65992319D02*
X135549999Y-65992319D01*
X135549999Y-65992319D02*
X135407142Y-66039938D01*
X135407142Y-66039938D02*
X135311904Y-66135176D01*
X135311904Y-66135176D02*
X135264285Y-66230414D01*
X135264285Y-66230414D02*
X135216666Y-66420890D01*
X135216666Y-66420890D02*
X135216666Y-66563747D01*
X135216666Y-66563747D02*
X135264285Y-66754223D01*
X135264285Y-66754223D02*
X135311904Y-66849461D01*
X135311904Y-66849461D02*
X135407142Y-66944700D01*
X135407142Y-66944700D02*
X135549999Y-66992319D01*
X135549999Y-66992319D02*
X135788094Y-66992319D01*
X134264285Y-66992319D02*
X134835713Y-66992319D01*
X134549999Y-66992319D02*
X134549999Y-65992319D01*
X134549999Y-65992319D02*
X134645237Y-66135176D01*
X134645237Y-66135176D02*
X134740475Y-66230414D01*
X134740475Y-66230414D02*
X134835713Y-66278033D01*
X130961904Y-69454819D02*
X130961904Y-70264342D01*
X130961904Y-70264342D02*
X130914285Y-70359580D01*
X130914285Y-70359580D02*
X130866666Y-70407200D01*
X130866666Y-70407200D02*
X130771428Y-70454819D01*
X130771428Y-70454819D02*
X130580952Y-70454819D01*
X130580952Y-70454819D02*
X130485714Y-70407200D01*
X130485714Y-70407200D02*
X130438095Y-70359580D01*
X130438095Y-70359580D02*
X130390476Y-70264342D01*
X130390476Y-70264342D02*
X130390476Y-69454819D01*
X129961904Y-69550057D02*
X129914285Y-69502438D01*
X129914285Y-69502438D02*
X129819047Y-69454819D01*
X129819047Y-69454819D02*
X129580952Y-69454819D01*
X129580952Y-69454819D02*
X129485714Y-69502438D01*
X129485714Y-69502438D02*
X129438095Y-69550057D01*
X129438095Y-69550057D02*
X129390476Y-69645295D01*
X129390476Y-69645295D02*
X129390476Y-69740533D01*
X129390476Y-69740533D02*
X129438095Y-69883390D01*
X129438095Y-69883390D02*
X130009523Y-70454819D01*
X130009523Y-70454819D02*
X129390476Y-70454819D01*
X136634580Y-70452142D02*
X136682200Y-70404523D01*
X136682200Y-70404523D02*
X136729819Y-70261666D01*
X136729819Y-70261666D02*
X136729819Y-70166428D01*
X136729819Y-70166428D02*
X136682200Y-70023571D01*
X136682200Y-70023571D02*
X136586961Y-69928333D01*
X136586961Y-69928333D02*
X136491723Y-69880714D01*
X136491723Y-69880714D02*
X136301247Y-69833095D01*
X136301247Y-69833095D02*
X136158390Y-69833095D01*
X136158390Y-69833095D02*
X135967914Y-69880714D01*
X135967914Y-69880714D02*
X135872676Y-69928333D01*
X135872676Y-69928333D02*
X135777438Y-70023571D01*
X135777438Y-70023571D02*
X135729819Y-70166428D01*
X135729819Y-70166428D02*
X135729819Y-70261666D01*
X135729819Y-70261666D02*
X135777438Y-70404523D01*
X135777438Y-70404523D02*
X135825057Y-70452142D01*
X136729819Y-71404523D02*
X136729819Y-70833095D01*
X136729819Y-71118809D02*
X135729819Y-71118809D01*
X135729819Y-71118809D02*
X135872676Y-71023571D01*
X135872676Y-71023571D02*
X135967914Y-70928333D01*
X135967914Y-70928333D02*
X136015533Y-70833095D01*
X135729819Y-72309285D02*
X135729819Y-71833095D01*
X135729819Y-71833095D02*
X136206009Y-71785476D01*
X136206009Y-71785476D02*
X136158390Y-71833095D01*
X136158390Y-71833095D02*
X136110771Y-71928333D01*
X136110771Y-71928333D02*
X136110771Y-72166428D01*
X136110771Y-72166428D02*
X136158390Y-72261666D01*
X136158390Y-72261666D02*
X136206009Y-72309285D01*
X136206009Y-72309285D02*
X136301247Y-72356904D01*
X136301247Y-72356904D02*
X136539342Y-72356904D01*
X136539342Y-72356904D02*
X136634580Y-72309285D01*
X136634580Y-72309285D02*
X136682200Y-72261666D01*
X136682200Y-72261666D02*
X136729819Y-72166428D01*
X136729819Y-72166428D02*
X136729819Y-71928333D01*
X136729819Y-71928333D02*
X136682200Y-71833095D01*
X136682200Y-71833095D02*
X136634580Y-71785476D01*
X133761904Y-57054819D02*
X133761904Y-57864342D01*
X133761904Y-57864342D02*
X133714285Y-57959580D01*
X133714285Y-57959580D02*
X133666666Y-58007200D01*
X133666666Y-58007200D02*
X133571428Y-58054819D01*
X133571428Y-58054819D02*
X133380952Y-58054819D01*
X133380952Y-58054819D02*
X133285714Y-58007200D01*
X133285714Y-58007200D02*
X133238095Y-57959580D01*
X133238095Y-57959580D02*
X133190476Y-57864342D01*
X133190476Y-57864342D02*
X133190476Y-57054819D01*
X132238095Y-57054819D02*
X132714285Y-57054819D01*
X132714285Y-57054819D02*
X132761904Y-57531009D01*
X132761904Y-57531009D02*
X132714285Y-57483390D01*
X132714285Y-57483390D02*
X132619047Y-57435771D01*
X132619047Y-57435771D02*
X132380952Y-57435771D01*
X132380952Y-57435771D02*
X132285714Y-57483390D01*
X132285714Y-57483390D02*
X132238095Y-57531009D01*
X132238095Y-57531009D02*
X132190476Y-57626247D01*
X132190476Y-57626247D02*
X132190476Y-57864342D01*
X132190476Y-57864342D02*
X132238095Y-57959580D01*
X132238095Y-57959580D02*
X132285714Y-58007200D01*
X132285714Y-58007200D02*
X132380952Y-58054819D01*
X132380952Y-58054819D02*
X132619047Y-58054819D01*
X132619047Y-58054819D02*
X132714285Y-58007200D01*
X132714285Y-58007200D02*
X132761904Y-57959580D01*
X103766666Y-83504819D02*
X104099999Y-83028628D01*
X104338094Y-83504819D02*
X104338094Y-82504819D01*
X104338094Y-82504819D02*
X103957142Y-82504819D01*
X103957142Y-82504819D02*
X103861904Y-82552438D01*
X103861904Y-82552438D02*
X103814285Y-82600057D01*
X103814285Y-82600057D02*
X103766666Y-82695295D01*
X103766666Y-82695295D02*
X103766666Y-82838152D01*
X103766666Y-82838152D02*
X103814285Y-82933390D01*
X103814285Y-82933390D02*
X103861904Y-82981009D01*
X103861904Y-82981009D02*
X103957142Y-83028628D01*
X103957142Y-83028628D02*
X104338094Y-83028628D01*
X102909523Y-82504819D02*
X103099999Y-82504819D01*
X103099999Y-82504819D02*
X103195237Y-82552438D01*
X103195237Y-82552438D02*
X103242856Y-82600057D01*
X103242856Y-82600057D02*
X103338094Y-82742914D01*
X103338094Y-82742914D02*
X103385713Y-82933390D01*
X103385713Y-82933390D02*
X103385713Y-83314342D01*
X103385713Y-83314342D02*
X103338094Y-83409580D01*
X103338094Y-83409580D02*
X103290475Y-83457200D01*
X103290475Y-83457200D02*
X103195237Y-83504819D01*
X103195237Y-83504819D02*
X103004761Y-83504819D01*
X103004761Y-83504819D02*
X102909523Y-83457200D01*
X102909523Y-83457200D02*
X102861904Y-83409580D01*
X102861904Y-83409580D02*
X102814285Y-83314342D01*
X102814285Y-83314342D02*
X102814285Y-83076247D01*
X102814285Y-83076247D02*
X102861904Y-82981009D01*
X102861904Y-82981009D02*
X102909523Y-82933390D01*
X102909523Y-82933390D02*
X103004761Y-82885771D01*
X103004761Y-82885771D02*
X103195237Y-82885771D01*
X103195237Y-82885771D02*
X103290475Y-82933390D01*
X103290475Y-82933390D02*
X103338094Y-82981009D01*
X103338094Y-82981009D02*
X103385713Y-83076247D01*
X137042857Y-76599819D02*
X137376190Y-76123628D01*
X137614285Y-76599819D02*
X137614285Y-75599819D01*
X137614285Y-75599819D02*
X137233333Y-75599819D01*
X137233333Y-75599819D02*
X137138095Y-75647438D01*
X137138095Y-75647438D02*
X137090476Y-75695057D01*
X137090476Y-75695057D02*
X137042857Y-75790295D01*
X137042857Y-75790295D02*
X137042857Y-75933152D01*
X137042857Y-75933152D02*
X137090476Y-76028390D01*
X137090476Y-76028390D02*
X137138095Y-76076009D01*
X137138095Y-76076009D02*
X137233333Y-76123628D01*
X137233333Y-76123628D02*
X137614285Y-76123628D01*
X136090476Y-76599819D02*
X136661904Y-76599819D01*
X136376190Y-76599819D02*
X136376190Y-75599819D01*
X136376190Y-75599819D02*
X136471428Y-75742676D01*
X136471428Y-75742676D02*
X136566666Y-75837914D01*
X136566666Y-75837914D02*
X136661904Y-75885533D01*
X135757142Y-75599819D02*
X135138095Y-75599819D01*
X135138095Y-75599819D02*
X135471428Y-75980771D01*
X135471428Y-75980771D02*
X135328571Y-75980771D01*
X135328571Y-75980771D02*
X135233333Y-76028390D01*
X135233333Y-76028390D02*
X135185714Y-76076009D01*
X135185714Y-76076009D02*
X135138095Y-76171247D01*
X135138095Y-76171247D02*
X135138095Y-76409342D01*
X135138095Y-76409342D02*
X135185714Y-76504580D01*
X135185714Y-76504580D02*
X135233333Y-76552200D01*
X135233333Y-76552200D02*
X135328571Y-76599819D01*
X135328571Y-76599819D02*
X135614285Y-76599819D01*
X135614285Y-76599819D02*
X135709523Y-76552200D01*
X135709523Y-76552200D02*
X135757142Y-76504580D01*
X139054819Y-61833333D02*
X139054819Y-61357143D01*
X139054819Y-61357143D02*
X138054819Y-61357143D01*
X139054819Y-62690476D02*
X139054819Y-62119048D01*
X139054819Y-62404762D02*
X138054819Y-62404762D01*
X138054819Y-62404762D02*
X138197676Y-62309524D01*
X138197676Y-62309524D02*
X138292914Y-62214286D01*
X138292914Y-62214286D02*
X138340533Y-62119048D01*
X131042857Y-79854819D02*
X131376190Y-79378628D01*
X131614285Y-79854819D02*
X131614285Y-78854819D01*
X131614285Y-78854819D02*
X131233333Y-78854819D01*
X131233333Y-78854819D02*
X131138095Y-78902438D01*
X131138095Y-78902438D02*
X131090476Y-78950057D01*
X131090476Y-78950057D02*
X131042857Y-79045295D01*
X131042857Y-79045295D02*
X131042857Y-79188152D01*
X131042857Y-79188152D02*
X131090476Y-79283390D01*
X131090476Y-79283390D02*
X131138095Y-79331009D01*
X131138095Y-79331009D02*
X131233333Y-79378628D01*
X131233333Y-79378628D02*
X131614285Y-79378628D01*
X130090476Y-79854819D02*
X130661904Y-79854819D01*
X130376190Y-79854819D02*
X130376190Y-78854819D01*
X130376190Y-78854819D02*
X130471428Y-78997676D01*
X130471428Y-78997676D02*
X130566666Y-79092914D01*
X130566666Y-79092914D02*
X130661904Y-79140533D01*
X129233333Y-79188152D02*
X129233333Y-79854819D01*
X129471428Y-78807200D02*
X129709523Y-79521485D01*
X129709523Y-79521485D02*
X129090476Y-79521485D01*
X130854819Y-58033333D02*
X130378628Y-57700000D01*
X130854819Y-57461905D02*
X129854819Y-57461905D01*
X129854819Y-57461905D02*
X129854819Y-57842857D01*
X129854819Y-57842857D02*
X129902438Y-57938095D01*
X129902438Y-57938095D02*
X129950057Y-57985714D01*
X129950057Y-57985714D02*
X130045295Y-58033333D01*
X130045295Y-58033333D02*
X130188152Y-58033333D01*
X130188152Y-58033333D02*
X130283390Y-57985714D01*
X130283390Y-57985714D02*
X130331009Y-57938095D01*
X130331009Y-57938095D02*
X130378628Y-57842857D01*
X130378628Y-57842857D02*
X130378628Y-57461905D01*
X130188152Y-58890476D02*
X130854819Y-58890476D01*
X129807200Y-58652381D02*
X130521485Y-58414286D01*
X130521485Y-58414286D02*
X130521485Y-59033333D01*
X114959580Y-68633333D02*
X115007200Y-68585714D01*
X115007200Y-68585714D02*
X115054819Y-68442857D01*
X115054819Y-68442857D02*
X115054819Y-68347619D01*
X115054819Y-68347619D02*
X115007200Y-68204762D01*
X115007200Y-68204762D02*
X114911961Y-68109524D01*
X114911961Y-68109524D02*
X114816723Y-68061905D01*
X114816723Y-68061905D02*
X114626247Y-68014286D01*
X114626247Y-68014286D02*
X114483390Y-68014286D01*
X114483390Y-68014286D02*
X114292914Y-68061905D01*
X114292914Y-68061905D02*
X114197676Y-68109524D01*
X114197676Y-68109524D02*
X114102438Y-68204762D01*
X114102438Y-68204762D02*
X114054819Y-68347619D01*
X114054819Y-68347619D02*
X114054819Y-68442857D01*
X114054819Y-68442857D02*
X114102438Y-68585714D01*
X114102438Y-68585714D02*
X114150057Y-68633333D01*
X115054819Y-69109524D02*
X115054819Y-69300000D01*
X115054819Y-69300000D02*
X115007200Y-69395238D01*
X115007200Y-69395238D02*
X114959580Y-69442857D01*
X114959580Y-69442857D02*
X114816723Y-69538095D01*
X114816723Y-69538095D02*
X114626247Y-69585714D01*
X114626247Y-69585714D02*
X114245295Y-69585714D01*
X114245295Y-69585714D02*
X114150057Y-69538095D01*
X114150057Y-69538095D02*
X114102438Y-69490476D01*
X114102438Y-69490476D02*
X114054819Y-69395238D01*
X114054819Y-69395238D02*
X114054819Y-69204762D01*
X114054819Y-69204762D02*
X114102438Y-69109524D01*
X114102438Y-69109524D02*
X114150057Y-69061905D01*
X114150057Y-69061905D02*
X114245295Y-69014286D01*
X114245295Y-69014286D02*
X114483390Y-69014286D01*
X114483390Y-69014286D02*
X114578628Y-69061905D01*
X114578628Y-69061905D02*
X114626247Y-69109524D01*
X114626247Y-69109524D02*
X114673866Y-69204762D01*
X114673866Y-69204762D02*
X114673866Y-69395238D01*
X114673866Y-69395238D02*
X114626247Y-69490476D01*
X114626247Y-69490476D02*
X114578628Y-69538095D01*
X114578628Y-69538095D02*
X114483390Y-69585714D01*
X116566666Y-76559580D02*
X116614285Y-76607200D01*
X116614285Y-76607200D02*
X116757142Y-76654819D01*
X116757142Y-76654819D02*
X116852380Y-76654819D01*
X116852380Y-76654819D02*
X116995237Y-76607200D01*
X116995237Y-76607200D02*
X117090475Y-76511961D01*
X117090475Y-76511961D02*
X117138094Y-76416723D01*
X117138094Y-76416723D02*
X117185713Y-76226247D01*
X117185713Y-76226247D02*
X117185713Y-76083390D01*
X117185713Y-76083390D02*
X117138094Y-75892914D01*
X117138094Y-75892914D02*
X117090475Y-75797676D01*
X117090475Y-75797676D02*
X116995237Y-75702438D01*
X116995237Y-75702438D02*
X116852380Y-75654819D01*
X116852380Y-75654819D02*
X116757142Y-75654819D01*
X116757142Y-75654819D02*
X116614285Y-75702438D01*
X116614285Y-75702438D02*
X116566666Y-75750057D01*
X115995237Y-76083390D02*
X116090475Y-76035771D01*
X116090475Y-76035771D02*
X116138094Y-75988152D01*
X116138094Y-75988152D02*
X116185713Y-75892914D01*
X116185713Y-75892914D02*
X116185713Y-75845295D01*
X116185713Y-75845295D02*
X116138094Y-75750057D01*
X116138094Y-75750057D02*
X116090475Y-75702438D01*
X116090475Y-75702438D02*
X115995237Y-75654819D01*
X115995237Y-75654819D02*
X115804761Y-75654819D01*
X115804761Y-75654819D02*
X115709523Y-75702438D01*
X115709523Y-75702438D02*
X115661904Y-75750057D01*
X115661904Y-75750057D02*
X115614285Y-75845295D01*
X115614285Y-75845295D02*
X115614285Y-75892914D01*
X115614285Y-75892914D02*
X115661904Y-75988152D01*
X115661904Y-75988152D02*
X115709523Y-76035771D01*
X115709523Y-76035771D02*
X115804761Y-76083390D01*
X115804761Y-76083390D02*
X115995237Y-76083390D01*
X115995237Y-76083390D02*
X116090475Y-76131009D01*
X116090475Y-76131009D02*
X116138094Y-76178628D01*
X116138094Y-76178628D02*
X116185713Y-76273866D01*
X116185713Y-76273866D02*
X116185713Y-76464342D01*
X116185713Y-76464342D02*
X116138094Y-76559580D01*
X116138094Y-76559580D02*
X116090475Y-76607200D01*
X116090475Y-76607200D02*
X115995237Y-76654819D01*
X115995237Y-76654819D02*
X115804761Y-76654819D01*
X115804761Y-76654819D02*
X115709523Y-76607200D01*
X115709523Y-76607200D02*
X115661904Y-76559580D01*
X115661904Y-76559580D02*
X115614285Y-76464342D01*
X115614285Y-76464342D02*
X115614285Y-76273866D01*
X115614285Y-76273866D02*
X115661904Y-76178628D01*
X115661904Y-76178628D02*
X115709523Y-76131009D01*
X115709523Y-76131009D02*
X115804761Y-76083390D01*
X126359580Y-57833333D02*
X126407200Y-57785714D01*
X126407200Y-57785714D02*
X126454819Y-57642857D01*
X126454819Y-57642857D02*
X126454819Y-57547619D01*
X126454819Y-57547619D02*
X126407200Y-57404762D01*
X126407200Y-57404762D02*
X126311961Y-57309524D01*
X126311961Y-57309524D02*
X126216723Y-57261905D01*
X126216723Y-57261905D02*
X126026247Y-57214286D01*
X126026247Y-57214286D02*
X125883390Y-57214286D01*
X125883390Y-57214286D02*
X125692914Y-57261905D01*
X125692914Y-57261905D02*
X125597676Y-57309524D01*
X125597676Y-57309524D02*
X125502438Y-57404762D01*
X125502438Y-57404762D02*
X125454819Y-57547619D01*
X125454819Y-57547619D02*
X125454819Y-57642857D01*
X125454819Y-57642857D02*
X125502438Y-57785714D01*
X125502438Y-57785714D02*
X125550057Y-57833333D01*
X125454819Y-58690476D02*
X125454819Y-58500000D01*
X125454819Y-58500000D02*
X125502438Y-58404762D01*
X125502438Y-58404762D02*
X125550057Y-58357143D01*
X125550057Y-58357143D02*
X125692914Y-58261905D01*
X125692914Y-58261905D02*
X125883390Y-58214286D01*
X125883390Y-58214286D02*
X126264342Y-58214286D01*
X126264342Y-58214286D02*
X126359580Y-58261905D01*
X126359580Y-58261905D02*
X126407200Y-58309524D01*
X126407200Y-58309524D02*
X126454819Y-58404762D01*
X126454819Y-58404762D02*
X126454819Y-58595238D01*
X126454819Y-58595238D02*
X126407200Y-58690476D01*
X126407200Y-58690476D02*
X126359580Y-58738095D01*
X126359580Y-58738095D02*
X126264342Y-58785714D01*
X126264342Y-58785714D02*
X126026247Y-58785714D01*
X126026247Y-58785714D02*
X125931009Y-58738095D01*
X125931009Y-58738095D02*
X125883390Y-58690476D01*
X125883390Y-58690476D02*
X125835771Y-58595238D01*
X125835771Y-58595238D02*
X125835771Y-58404762D01*
X125835771Y-58404762D02*
X125883390Y-58309524D01*
X125883390Y-58309524D02*
X125931009Y-58261905D01*
X125931009Y-58261905D02*
X126026247Y-58214286D01*
X118561904Y-67004819D02*
X118561904Y-67814342D01*
X118561904Y-67814342D02*
X118514285Y-67909580D01*
X118514285Y-67909580D02*
X118466666Y-67957200D01*
X118466666Y-67957200D02*
X118371428Y-68004819D01*
X118371428Y-68004819D02*
X118180952Y-68004819D01*
X118180952Y-68004819D02*
X118085714Y-67957200D01*
X118085714Y-67957200D02*
X118038095Y-67909580D01*
X118038095Y-67909580D02*
X117990476Y-67814342D01*
X117990476Y-67814342D02*
X117990476Y-67004819D01*
X117085714Y-67338152D02*
X117085714Y-68004819D01*
X117323809Y-66957200D02*
X117561904Y-67671485D01*
X117561904Y-67671485D02*
X116942857Y-67671485D01*
X123317857Y-71299819D02*
X123651190Y-70823628D01*
X123889285Y-71299819D02*
X123889285Y-70299819D01*
X123889285Y-70299819D02*
X123508333Y-70299819D01*
X123508333Y-70299819D02*
X123413095Y-70347438D01*
X123413095Y-70347438D02*
X123365476Y-70395057D01*
X123365476Y-70395057D02*
X123317857Y-70490295D01*
X123317857Y-70490295D02*
X123317857Y-70633152D01*
X123317857Y-70633152D02*
X123365476Y-70728390D01*
X123365476Y-70728390D02*
X123413095Y-70776009D01*
X123413095Y-70776009D02*
X123508333Y-70823628D01*
X123508333Y-70823628D02*
X123889285Y-70823628D01*
X122365476Y-71299819D02*
X122936904Y-71299819D01*
X122651190Y-71299819D02*
X122651190Y-70299819D01*
X122651190Y-70299819D02*
X122746428Y-70442676D01*
X122746428Y-70442676D02*
X122841666Y-70537914D01*
X122841666Y-70537914D02*
X122936904Y-70585533D01*
X121460714Y-70299819D02*
X121936904Y-70299819D01*
X121936904Y-70299819D02*
X121984523Y-70776009D01*
X121984523Y-70776009D02*
X121936904Y-70728390D01*
X121936904Y-70728390D02*
X121841666Y-70680771D01*
X121841666Y-70680771D02*
X121603571Y-70680771D01*
X121603571Y-70680771D02*
X121508333Y-70728390D01*
X121508333Y-70728390D02*
X121460714Y-70776009D01*
X121460714Y-70776009D02*
X121413095Y-70871247D01*
X121413095Y-70871247D02*
X121413095Y-71109342D01*
X121413095Y-71109342D02*
X121460714Y-71204580D01*
X121460714Y-71204580D02*
X121508333Y-71252200D01*
X121508333Y-71252200D02*
X121603571Y-71299819D01*
X121603571Y-71299819D02*
X121841666Y-71299819D01*
X121841666Y-71299819D02*
X121936904Y-71252200D01*
X121936904Y-71252200D02*
X121984523Y-71204580D01*
X116538094Y-78454819D02*
X116538094Y-77454819D01*
X116538094Y-77454819D02*
X116299999Y-77454819D01*
X116299999Y-77454819D02*
X116157142Y-77502438D01*
X116157142Y-77502438D02*
X116061904Y-77597676D01*
X116061904Y-77597676D02*
X116014285Y-77692914D01*
X116014285Y-77692914D02*
X115966666Y-77883390D01*
X115966666Y-77883390D02*
X115966666Y-78026247D01*
X115966666Y-78026247D02*
X116014285Y-78216723D01*
X116014285Y-78216723D02*
X116061904Y-78311961D01*
X116061904Y-78311961D02*
X116157142Y-78407200D01*
X116157142Y-78407200D02*
X116299999Y-78454819D01*
X116299999Y-78454819D02*
X116538094Y-78454819D01*
X115633332Y-77454819D02*
X115014285Y-77454819D01*
X115014285Y-77454819D02*
X115347618Y-77835771D01*
X115347618Y-77835771D02*
X115204761Y-77835771D01*
X115204761Y-77835771D02*
X115109523Y-77883390D01*
X115109523Y-77883390D02*
X115061904Y-77931009D01*
X115061904Y-77931009D02*
X115014285Y-78026247D01*
X115014285Y-78026247D02*
X115014285Y-78264342D01*
X115014285Y-78264342D02*
X115061904Y-78359580D01*
X115061904Y-78359580D02*
X115109523Y-78407200D01*
X115109523Y-78407200D02*
X115204761Y-78454819D01*
X115204761Y-78454819D02*
X115490475Y-78454819D01*
X115490475Y-78454819D02*
X115585713Y-78407200D01*
X115585713Y-78407200D02*
X115633332Y-78359580D01*
X109063094Y-68804819D02*
X109063094Y-67804819D01*
X109063094Y-67804819D02*
X108824999Y-67804819D01*
X108824999Y-67804819D02*
X108682142Y-67852438D01*
X108682142Y-67852438D02*
X108586904Y-67947676D01*
X108586904Y-67947676D02*
X108539285Y-68042914D01*
X108539285Y-68042914D02*
X108491666Y-68233390D01*
X108491666Y-68233390D02*
X108491666Y-68376247D01*
X108491666Y-68376247D02*
X108539285Y-68566723D01*
X108539285Y-68566723D02*
X108586904Y-68661961D01*
X108586904Y-68661961D02*
X108682142Y-68757200D01*
X108682142Y-68757200D02*
X108824999Y-68804819D01*
X108824999Y-68804819D02*
X109063094Y-68804819D01*
X108110713Y-67900057D02*
X108063094Y-67852438D01*
X108063094Y-67852438D02*
X107967856Y-67804819D01*
X107967856Y-67804819D02*
X107729761Y-67804819D01*
X107729761Y-67804819D02*
X107634523Y-67852438D01*
X107634523Y-67852438D02*
X107586904Y-67900057D01*
X107586904Y-67900057D02*
X107539285Y-67995295D01*
X107539285Y-67995295D02*
X107539285Y-68090533D01*
X107539285Y-68090533D02*
X107586904Y-68233390D01*
X107586904Y-68233390D02*
X108158332Y-68804819D01*
X108158332Y-68804819D02*
X107539285Y-68804819D01*
X138959580Y-57033333D02*
X139007200Y-56985714D01*
X139007200Y-56985714D02*
X139054819Y-56842857D01*
X139054819Y-56842857D02*
X139054819Y-56747619D01*
X139054819Y-56747619D02*
X139007200Y-56604762D01*
X139007200Y-56604762D02*
X138911961Y-56509524D01*
X138911961Y-56509524D02*
X138816723Y-56461905D01*
X138816723Y-56461905D02*
X138626247Y-56414286D01*
X138626247Y-56414286D02*
X138483390Y-56414286D01*
X138483390Y-56414286D02*
X138292914Y-56461905D01*
X138292914Y-56461905D02*
X138197676Y-56509524D01*
X138197676Y-56509524D02*
X138102438Y-56604762D01*
X138102438Y-56604762D02*
X138054819Y-56747619D01*
X138054819Y-56747619D02*
X138054819Y-56842857D01*
X138054819Y-56842857D02*
X138102438Y-56985714D01*
X138102438Y-56985714D02*
X138150057Y-57033333D01*
X138054819Y-57938095D02*
X138054819Y-57461905D01*
X138054819Y-57461905D02*
X138531009Y-57414286D01*
X138531009Y-57414286D02*
X138483390Y-57461905D01*
X138483390Y-57461905D02*
X138435771Y-57557143D01*
X138435771Y-57557143D02*
X138435771Y-57795238D01*
X138435771Y-57795238D02*
X138483390Y-57890476D01*
X138483390Y-57890476D02*
X138531009Y-57938095D01*
X138531009Y-57938095D02*
X138626247Y-57985714D01*
X138626247Y-57985714D02*
X138864342Y-57985714D01*
X138864342Y-57985714D02*
X138959580Y-57938095D01*
X138959580Y-57938095D02*
X139007200Y-57890476D01*
X139007200Y-57890476D02*
X139054819Y-57795238D01*
X139054819Y-57795238D02*
X139054819Y-57557143D01*
X139054819Y-57557143D02*
X139007200Y-57461905D01*
X139007200Y-57461905D02*
X138959580Y-57414286D01*
X104004819Y-73833333D02*
X103528628Y-73500000D01*
X104004819Y-73261905D02*
X103004819Y-73261905D01*
X103004819Y-73261905D02*
X103004819Y-73642857D01*
X103004819Y-73642857D02*
X103052438Y-73738095D01*
X103052438Y-73738095D02*
X103100057Y-73785714D01*
X103100057Y-73785714D02*
X103195295Y-73833333D01*
X103195295Y-73833333D02*
X103338152Y-73833333D01*
X103338152Y-73833333D02*
X103433390Y-73785714D01*
X103433390Y-73785714D02*
X103481009Y-73738095D01*
X103481009Y-73738095D02*
X103528628Y-73642857D01*
X103528628Y-73642857D02*
X103528628Y-73261905D01*
X104004819Y-74309524D02*
X104004819Y-74500000D01*
X104004819Y-74500000D02*
X103957200Y-74595238D01*
X103957200Y-74595238D02*
X103909580Y-74642857D01*
X103909580Y-74642857D02*
X103766723Y-74738095D01*
X103766723Y-74738095D02*
X103576247Y-74785714D01*
X103576247Y-74785714D02*
X103195295Y-74785714D01*
X103195295Y-74785714D02*
X103100057Y-74738095D01*
X103100057Y-74738095D02*
X103052438Y-74690476D01*
X103052438Y-74690476D02*
X103004819Y-74595238D01*
X103004819Y-74595238D02*
X103004819Y-74404762D01*
X103004819Y-74404762D02*
X103052438Y-74309524D01*
X103052438Y-74309524D02*
X103100057Y-74261905D01*
X103100057Y-74261905D02*
X103195295Y-74214286D01*
X103195295Y-74214286D02*
X103433390Y-74214286D01*
X103433390Y-74214286D02*
X103528628Y-74261905D01*
X103528628Y-74261905D02*
X103576247Y-74309524D01*
X103576247Y-74309524D02*
X103623866Y-74404762D01*
X103623866Y-74404762D02*
X103623866Y-74595238D01*
X103623866Y-74595238D02*
X103576247Y-74690476D01*
X103576247Y-74690476D02*
X103528628Y-74738095D01*
X103528628Y-74738095D02*
X103433390Y-74785714D01*
X122366666Y-80054819D02*
X122699999Y-79578628D01*
X122938094Y-80054819D02*
X122938094Y-79054819D01*
X122938094Y-79054819D02*
X122557142Y-79054819D01*
X122557142Y-79054819D02*
X122461904Y-79102438D01*
X122461904Y-79102438D02*
X122414285Y-79150057D01*
X122414285Y-79150057D02*
X122366666Y-79245295D01*
X122366666Y-79245295D02*
X122366666Y-79388152D01*
X122366666Y-79388152D02*
X122414285Y-79483390D01*
X122414285Y-79483390D02*
X122461904Y-79531009D01*
X122461904Y-79531009D02*
X122557142Y-79578628D01*
X122557142Y-79578628D02*
X122938094Y-79578628D01*
X121795237Y-79483390D02*
X121890475Y-79435771D01*
X121890475Y-79435771D02*
X121938094Y-79388152D01*
X121938094Y-79388152D02*
X121985713Y-79292914D01*
X121985713Y-79292914D02*
X121985713Y-79245295D01*
X121985713Y-79245295D02*
X121938094Y-79150057D01*
X121938094Y-79150057D02*
X121890475Y-79102438D01*
X121890475Y-79102438D02*
X121795237Y-79054819D01*
X121795237Y-79054819D02*
X121604761Y-79054819D01*
X121604761Y-79054819D02*
X121509523Y-79102438D01*
X121509523Y-79102438D02*
X121461904Y-79150057D01*
X121461904Y-79150057D02*
X121414285Y-79245295D01*
X121414285Y-79245295D02*
X121414285Y-79292914D01*
X121414285Y-79292914D02*
X121461904Y-79388152D01*
X121461904Y-79388152D02*
X121509523Y-79435771D01*
X121509523Y-79435771D02*
X121604761Y-79483390D01*
X121604761Y-79483390D02*
X121795237Y-79483390D01*
X121795237Y-79483390D02*
X121890475Y-79531009D01*
X121890475Y-79531009D02*
X121938094Y-79578628D01*
X121938094Y-79578628D02*
X121985713Y-79673866D01*
X121985713Y-79673866D02*
X121985713Y-79864342D01*
X121985713Y-79864342D02*
X121938094Y-79959580D01*
X121938094Y-79959580D02*
X121890475Y-80007200D01*
X121890475Y-80007200D02*
X121795237Y-80054819D01*
X121795237Y-80054819D02*
X121604761Y-80054819D01*
X121604761Y-80054819D02*
X121509523Y-80007200D01*
X121509523Y-80007200D02*
X121461904Y-79959580D01*
X121461904Y-79959580D02*
X121414285Y-79864342D01*
X121414285Y-79864342D02*
X121414285Y-79673866D01*
X121414285Y-79673866D02*
X121461904Y-79578628D01*
X121461904Y-79578628D02*
X121509523Y-79531009D01*
X121509523Y-79531009D02*
X121604761Y-79483390D01*
X128759580Y-57833333D02*
X128807200Y-57785714D01*
X128807200Y-57785714D02*
X128854819Y-57642857D01*
X128854819Y-57642857D02*
X128854819Y-57547619D01*
X128854819Y-57547619D02*
X128807200Y-57404762D01*
X128807200Y-57404762D02*
X128711961Y-57309524D01*
X128711961Y-57309524D02*
X128616723Y-57261905D01*
X128616723Y-57261905D02*
X128426247Y-57214286D01*
X128426247Y-57214286D02*
X128283390Y-57214286D01*
X128283390Y-57214286D02*
X128092914Y-57261905D01*
X128092914Y-57261905D02*
X127997676Y-57309524D01*
X127997676Y-57309524D02*
X127902438Y-57404762D01*
X127902438Y-57404762D02*
X127854819Y-57547619D01*
X127854819Y-57547619D02*
X127854819Y-57642857D01*
X127854819Y-57642857D02*
X127902438Y-57785714D01*
X127902438Y-57785714D02*
X127950057Y-57833333D01*
X128188152Y-58690476D02*
X128854819Y-58690476D01*
X127807200Y-58452381D02*
X128521485Y-58214286D01*
X128521485Y-58214286D02*
X128521485Y-58833333D01*
X127016666Y-66117319D02*
X127349999Y-65641128D01*
X127588094Y-66117319D02*
X127588094Y-65117319D01*
X127588094Y-65117319D02*
X127207142Y-65117319D01*
X127207142Y-65117319D02*
X127111904Y-65164938D01*
X127111904Y-65164938D02*
X127064285Y-65212557D01*
X127064285Y-65212557D02*
X127016666Y-65307795D01*
X127016666Y-65307795D02*
X127016666Y-65450652D01*
X127016666Y-65450652D02*
X127064285Y-65545890D01*
X127064285Y-65545890D02*
X127111904Y-65593509D01*
X127111904Y-65593509D02*
X127207142Y-65641128D01*
X127207142Y-65641128D02*
X127588094Y-65641128D01*
X126111904Y-65117319D02*
X126588094Y-65117319D01*
X126588094Y-65117319D02*
X126635713Y-65593509D01*
X126635713Y-65593509D02*
X126588094Y-65545890D01*
X126588094Y-65545890D02*
X126492856Y-65498271D01*
X126492856Y-65498271D02*
X126254761Y-65498271D01*
X126254761Y-65498271D02*
X126159523Y-65545890D01*
X126159523Y-65545890D02*
X126111904Y-65593509D01*
X126111904Y-65593509D02*
X126064285Y-65688747D01*
X126064285Y-65688747D02*
X126064285Y-65926842D01*
X126064285Y-65926842D02*
X126111904Y-66022080D01*
X126111904Y-66022080D02*
X126159523Y-66069700D01*
X126159523Y-66069700D02*
X126254761Y-66117319D01*
X126254761Y-66117319D02*
X126492856Y-66117319D01*
X126492856Y-66117319D02*
X126588094Y-66069700D01*
X126588094Y-66069700D02*
X126635713Y-66022080D01*
X104959580Y-77433333D02*
X105007200Y-77385714D01*
X105007200Y-77385714D02*
X105054819Y-77242857D01*
X105054819Y-77242857D02*
X105054819Y-77147619D01*
X105054819Y-77147619D02*
X105007200Y-77004762D01*
X105007200Y-77004762D02*
X104911961Y-76909524D01*
X104911961Y-76909524D02*
X104816723Y-76861905D01*
X104816723Y-76861905D02*
X104626247Y-76814286D01*
X104626247Y-76814286D02*
X104483390Y-76814286D01*
X104483390Y-76814286D02*
X104292914Y-76861905D01*
X104292914Y-76861905D02*
X104197676Y-76909524D01*
X104197676Y-76909524D02*
X104102438Y-77004762D01*
X104102438Y-77004762D02*
X104054819Y-77147619D01*
X104054819Y-77147619D02*
X104054819Y-77242857D01*
X104054819Y-77242857D02*
X104102438Y-77385714D01*
X104102438Y-77385714D02*
X104150057Y-77433333D01*
X104054819Y-77766667D02*
X104054819Y-78433333D01*
X104054819Y-78433333D02*
X105054819Y-78004762D01*
D14*
%TO.C,G\u002A\u002A\u002A*%
G36*
X111444710Y-61903058D02*
G01*
X111483612Y-61919398D01*
X111485982Y-61921057D01*
X111500875Y-61934869D01*
X111525825Y-61961375D01*
X111558612Y-61998071D01*
X111597018Y-62042451D01*
X111638822Y-62092010D01*
X111659064Y-62116442D01*
X111699978Y-62165845D01*
X111736780Y-62209770D01*
X111767662Y-62246101D01*
X111790816Y-62272721D01*
X111804435Y-62287515D01*
X111807227Y-62289846D01*
X111817283Y-62284799D01*
X111839335Y-62271378D01*
X111869196Y-62252157D01*
X111879255Y-62245510D01*
X111994637Y-62178610D01*
X112110298Y-62131184D01*
X112226437Y-62103164D01*
X112337356Y-62094461D01*
X112424030Y-62099762D01*
X112503330Y-62114905D01*
X112573582Y-62138750D01*
X112633114Y-62170157D01*
X112680251Y-62207986D01*
X112713322Y-62251098D01*
X112730652Y-62298353D01*
X112730569Y-62348610D01*
X112727897Y-62360528D01*
X112716459Y-62385812D01*
X112694372Y-62420371D01*
X112664702Y-62459565D01*
X112653644Y-62472874D01*
X112551467Y-62599016D01*
X112456723Y-62727808D01*
X112428036Y-62769690D01*
X112378069Y-62844111D01*
X112443198Y-62850784D01*
X112506010Y-62861542D01*
X112574711Y-62880335D01*
X112640904Y-62904478D01*
X112696190Y-62931287D01*
X112697492Y-62932045D01*
X112729808Y-62954005D01*
X112767265Y-62984033D01*
X112805534Y-63018116D01*
X112840285Y-63052238D01*
X112867190Y-63082387D01*
X112880674Y-63101922D01*
X112891155Y-63136046D01*
X112894453Y-63178248D01*
X112890745Y-63220255D01*
X112880208Y-63253793D01*
X112877321Y-63258720D01*
X112862951Y-63274059D01*
X112836008Y-63297282D01*
X112800159Y-63325411D01*
X112759071Y-63355467D01*
X112752828Y-63359855D01*
X112701589Y-63396488D01*
X112645582Y-63437830D01*
X112592251Y-63478326D01*
X112555891Y-63506879D01*
X112523516Y-63533624D01*
X112483922Y-63567479D01*
X112439672Y-63606128D01*
X112393327Y-63647255D01*
X112347449Y-63688546D01*
X112304601Y-63727685D01*
X112267345Y-63762355D01*
X112238243Y-63790242D01*
X112219857Y-63809030D01*
X112215083Y-63814893D01*
X112218533Y-63826238D01*
X112234100Y-63845728D01*
X112258449Y-63869236D01*
X112296284Y-63905626D01*
X112341232Y-63954052D01*
X112389691Y-64010212D01*
X112438060Y-64069803D01*
X112482740Y-64128522D01*
X112519750Y-64181491D01*
X112607979Y-64332633D01*
X112682985Y-64497671D01*
X112744506Y-64675880D01*
X112792283Y-64866537D01*
X112817508Y-65007676D01*
X112826722Y-65084361D01*
X112833569Y-65173601D01*
X112837964Y-65270251D01*
X112839824Y-65369166D01*
X112839066Y-65465199D01*
X112835605Y-65553206D01*
X112829358Y-65628040D01*
X112827804Y-65640692D01*
X112795513Y-65829884D01*
X112750053Y-66004704D01*
X112691381Y-66165252D01*
X112619452Y-66311629D01*
X112534224Y-66443935D01*
X112435654Y-66562271D01*
X112427863Y-66570440D01*
X112320402Y-66668128D01*
X112201336Y-66750377D01*
X112071946Y-66816430D01*
X111933518Y-66865533D01*
X111920478Y-66869144D01*
X111896569Y-66875528D01*
X111875078Y-66880774D01*
X111853821Y-66885005D01*
X111830615Y-66888345D01*
X111803275Y-66890917D01*
X111769617Y-66892843D01*
X111727457Y-66894248D01*
X111674611Y-66895255D01*
X111608893Y-66895987D01*
X111528122Y-66896567D01*
X111430111Y-66897119D01*
X111424423Y-66897150D01*
X111335769Y-66897415D01*
X111251517Y-66897260D01*
X111174055Y-66896721D01*
X111105770Y-66895832D01*
X111049050Y-66894625D01*
X111006284Y-66893136D01*
X110979859Y-66891397D01*
X110975038Y-66890758D01*
X110833782Y-66856552D01*
X110701235Y-66805306D01*
X110577877Y-66737702D01*
X110464188Y-66654423D01*
X110392452Y-66586335D01*
X111004001Y-66586335D01*
X111017410Y-66590187D01*
X111047710Y-66593567D01*
X111092257Y-66596460D01*
X111148411Y-66598848D01*
X111213528Y-66600717D01*
X111284966Y-66602049D01*
X111360082Y-66602828D01*
X111436234Y-66603039D01*
X111510780Y-66602665D01*
X111581077Y-66601690D01*
X111644483Y-66600097D01*
X111698355Y-66597871D01*
X111740051Y-66594996D01*
X111766928Y-66591455D01*
X111768907Y-66591015D01*
X111800776Y-66583423D01*
X111600388Y-66383243D01*
X111400000Y-66183063D01*
X111200093Y-66382791D01*
X111149258Y-66433833D01*
X111103446Y-66480319D01*
X111064345Y-66520496D01*
X111033641Y-66552613D01*
X111013022Y-66574919D01*
X111004177Y-66585662D01*
X111004001Y-66586335D01*
X110392452Y-66586335D01*
X110360648Y-66556149D01*
X110267739Y-66443564D01*
X110185939Y-66317347D01*
X110115730Y-66178182D01*
X110057591Y-66026750D01*
X110017250Y-65882499D01*
X110332754Y-65882499D01*
X110354730Y-65949653D01*
X110401783Y-66070835D01*
X110460371Y-66183994D01*
X110528435Y-66285713D01*
X110603913Y-66372574D01*
X110618196Y-66386431D01*
X110648420Y-66414285D01*
X110673517Y-66436189D01*
X110690051Y-66449210D01*
X110694429Y-66451538D01*
X110702777Y-66444867D01*
X110723274Y-66425902D01*
X110754301Y-66396213D01*
X110794242Y-66357374D01*
X110841478Y-66310954D01*
X110894393Y-66258526D01*
X110943364Y-66209675D01*
X111185081Y-65967813D01*
X111180294Y-65963029D01*
X111619907Y-65963029D01*
X111863418Y-66206687D01*
X112106929Y-66450344D01*
X112133587Y-66431362D01*
X112152211Y-66415646D01*
X112179149Y-66389907D01*
X112209709Y-66358700D01*
X112222180Y-66345399D01*
X112278724Y-66276146D01*
X112333257Y-66194427D01*
X112381525Y-66107184D01*
X112416911Y-66027572D01*
X112431324Y-65991083D01*
X112442277Y-65961892D01*
X112448683Y-65937649D01*
X112449457Y-65916005D01*
X112443511Y-65894610D01*
X112429759Y-65871114D01*
X112407114Y-65843167D01*
X112374491Y-65808420D01*
X112330803Y-65764523D01*
X112274963Y-65709127D01*
X112265158Y-65699367D01*
X112074009Y-65508928D01*
X111846958Y-65735978D01*
X111619907Y-65963029D01*
X111180294Y-65963029D01*
X110950594Y-65733479D01*
X110716108Y-65499145D01*
X110524431Y-65690822D01*
X110332754Y-65882499D01*
X110017250Y-65882499D01*
X110012002Y-65863733D01*
X109979444Y-65689813D01*
X109960398Y-65505671D01*
X109957278Y-65445780D01*
X109957359Y-65393837D01*
X110258563Y-65393837D01*
X110259606Y-65436775D01*
X110261351Y-65459075D01*
X110268528Y-65516517D01*
X110384879Y-65400469D01*
X110501230Y-65284421D01*
X110493988Y-65277157D01*
X110941447Y-65277157D01*
X110946997Y-65284461D01*
X110964851Y-65303930D01*
X110993455Y-65333957D01*
X111031253Y-65372937D01*
X111076689Y-65419262D01*
X111128209Y-65471326D01*
X111170791Y-65514061D01*
X111404732Y-65748153D01*
X111631360Y-65521679D01*
X111857988Y-65295204D01*
X111855775Y-65292594D01*
X112287994Y-65292594D01*
X112408170Y-65413118D01*
X112528346Y-65533642D01*
X112536369Y-65477263D01*
X112538876Y-65446799D01*
X112540210Y-65402163D01*
X112540317Y-65348689D01*
X112539138Y-65291710D01*
X112538511Y-65274346D01*
X112535906Y-65203859D01*
X112533415Y-65151708D01*
X112529385Y-65116774D01*
X112522166Y-65097934D01*
X112510103Y-65094066D01*
X112491546Y-65104050D01*
X112464842Y-65126765D01*
X112428340Y-65161087D01*
X112404612Y-65183455D01*
X112287994Y-65292594D01*
X111855775Y-65292594D01*
X111820151Y-65250583D01*
X111803097Y-65231746D01*
X111774417Y-65201514D01*
X111736386Y-65162223D01*
X111691277Y-65116206D01*
X111641367Y-65065800D01*
X111591250Y-65015649D01*
X111400187Y-64825337D01*
X111173115Y-65049841D01*
X111118296Y-65103990D01*
X111067962Y-65153609D01*
X111023783Y-65197063D01*
X110987426Y-65232712D01*
X110960562Y-65258921D01*
X110944859Y-65274050D01*
X110941447Y-65277157D01*
X110493988Y-65277157D01*
X110391326Y-65174180D01*
X110281423Y-65063939D01*
X110274417Y-65095873D01*
X110270033Y-65125577D01*
X110266107Y-65169866D01*
X110262820Y-65223788D01*
X110260348Y-65282392D01*
X110258869Y-65340725D01*
X110258563Y-65393837D01*
X109957359Y-65393837D01*
X109957596Y-65240765D01*
X109974912Y-65040726D01*
X110008818Y-64846791D01*
X110046655Y-64705752D01*
X110362677Y-64705752D01*
X110541066Y-64884336D01*
X110719455Y-65062921D01*
X110951231Y-64836479D01*
X111018168Y-64770738D01*
X111071798Y-64717239D01*
X111113114Y-64674911D01*
X111143111Y-64642684D01*
X111162781Y-64619486D01*
X111169759Y-64609200D01*
X111614235Y-64609200D01*
X111846544Y-64841660D01*
X112078852Y-65074120D01*
X112258363Y-64894610D01*
X112437873Y-64715099D01*
X112425673Y-64677223D01*
X112399499Y-64608738D01*
X112362872Y-64530755D01*
X112318607Y-64448118D01*
X112269518Y-64365674D01*
X112218418Y-64288267D01*
X112168121Y-64220742D01*
X112143678Y-64191663D01*
X112093314Y-64134750D01*
X111853775Y-64371975D01*
X111614235Y-64609200D01*
X111169759Y-64609200D01*
X111173119Y-64604247D01*
X111175117Y-64595894D01*
X111174890Y-64595384D01*
X111166208Y-64585155D01*
X111145338Y-64562927D01*
X111113981Y-64530440D01*
X111073840Y-64489438D01*
X111026616Y-64441661D01*
X110974011Y-64388853D01*
X110939020Y-64353931D01*
X110711269Y-64127131D01*
X110652653Y-64196029D01*
X110562187Y-64314727D01*
X110480621Y-64446572D01*
X110411277Y-64585983D01*
X110389386Y-64638356D01*
X110362677Y-64705752D01*
X110046655Y-64705752D01*
X110058906Y-64660088D01*
X110124768Y-64481747D01*
X110205997Y-64312897D01*
X110302185Y-64154666D01*
X110412923Y-64008183D01*
X110477928Y-63937504D01*
X110960831Y-63937504D01*
X110966751Y-63944688D01*
X110984481Y-63963734D01*
X111012061Y-63992646D01*
X111047531Y-64029423D01*
X111088930Y-64072068D01*
X111134299Y-64118582D01*
X111181677Y-64166967D01*
X111229105Y-64215225D01*
X111274622Y-64261356D01*
X111316267Y-64303363D01*
X111352082Y-64339247D01*
X111380106Y-64367010D01*
X111398378Y-64384654D01*
X111404884Y-64390230D01*
X111411558Y-64383590D01*
X111430415Y-64364755D01*
X111459831Y-64335349D01*
X111498179Y-64296999D01*
X111543833Y-64251330D01*
X111595168Y-64199969D01*
X111628691Y-64166424D01*
X111852338Y-63942618D01*
X111794688Y-63913572D01*
X111707643Y-63874946D01*
X111621742Y-63848503D01*
X111530277Y-63832578D01*
X111441533Y-63826008D01*
X111361913Y-63824639D01*
X111294804Y-63827804D01*
X111233537Y-63836319D01*
X111171442Y-63850999D01*
X111126461Y-63864560D01*
X111091226Y-63877042D01*
X111051962Y-63892736D01*
X111013972Y-63909306D01*
X110982560Y-63924417D01*
X110963031Y-63935732D01*
X110960831Y-63937504D01*
X110477928Y-63937504D01*
X110517967Y-63893970D01*
X110547169Y-63863610D01*
X110569495Y-63837798D01*
X110582269Y-63819793D01*
X110584028Y-63813457D01*
X110573391Y-63801502D01*
X110550541Y-63779078D01*
X110518044Y-63748497D01*
X110478464Y-63712073D01*
X110434366Y-63672118D01*
X110388314Y-63630945D01*
X110342873Y-63590868D01*
X110300607Y-63554200D01*
X110264081Y-63523253D01*
X110244108Y-63506879D01*
X110198515Y-63471225D01*
X110144154Y-63430179D01*
X110088451Y-63389282D01*
X110046961Y-63359731D01*
X110005297Y-63329469D01*
X109968299Y-63300491D01*
X109939653Y-63275831D01*
X109923045Y-63258523D01*
X109921849Y-63256794D01*
X109908928Y-63222642D01*
X109904174Y-63179418D01*
X109905353Y-63165293D01*
X110325260Y-63165293D01*
X110328818Y-63174790D01*
X110346608Y-63193909D01*
X110376914Y-63220988D01*
X110413490Y-63250803D01*
X110468977Y-63296086D01*
X110533109Y-63350909D01*
X110601288Y-63411138D01*
X110668918Y-63472637D01*
X110731399Y-63531273D01*
X110784135Y-63582912D01*
X110794143Y-63593098D01*
X110820514Y-63618459D01*
X110842458Y-63636427D01*
X110856056Y-63643877D01*
X110857643Y-63643751D01*
X110870549Y-63638299D01*
X110896961Y-63627276D01*
X110932326Y-63612580D01*
X110953320Y-63603878D01*
X111003682Y-63585109D01*
X111062826Y-63566178D01*
X111120297Y-63550356D01*
X111137106Y-63546376D01*
X111226218Y-63526390D01*
X111566264Y-63526390D01*
X111652443Y-63543810D01*
X111699930Y-63555544D01*
X111756307Y-63572672D01*
X111812725Y-63592396D01*
X111840407Y-63603270D01*
X111881305Y-63620138D01*
X111915044Y-63634007D01*
X111937846Y-63643327D01*
X111945877Y-63646540D01*
X111953728Y-63640488D01*
X111973240Y-63622935D01*
X112002100Y-63596034D01*
X112037994Y-63561939D01*
X112073148Y-63528096D01*
X112204247Y-63405566D01*
X112332622Y-63294277D01*
X112428017Y-63217723D01*
X112455698Y-63194933D01*
X112469750Y-63178426D01*
X112469008Y-63167027D01*
X112452304Y-63159565D01*
X112418474Y-63154865D01*
X112366350Y-63151754D01*
X112362269Y-63151578D01*
X112254077Y-63156262D01*
X112140657Y-63178993D01*
X112023138Y-63219341D01*
X111902647Y-63276878D01*
X111780310Y-63351174D01*
X111712615Y-63399047D01*
X111673975Y-63428655D01*
X111637763Y-63457983D01*
X111609170Y-63482757D01*
X111597920Y-63493562D01*
X111566264Y-63526390D01*
X111226218Y-63526390D01*
X111235149Y-63524387D01*
X111193016Y-63485562D01*
X111090265Y-63400312D01*
X110977651Y-63323805D01*
X110859254Y-63258243D01*
X110739151Y-63205826D01*
X110621420Y-63168754D01*
X110594038Y-63162399D01*
X110557599Y-63156815D01*
X110512962Y-63153284D01*
X110464674Y-63151757D01*
X110417281Y-63152185D01*
X110375327Y-63154518D01*
X110343358Y-63158709D01*
X110325921Y-63164707D01*
X110325260Y-63165293D01*
X109905353Y-63165293D01*
X109907807Y-63135897D01*
X109918052Y-63104443D01*
X109936837Y-63077683D01*
X109967449Y-63044105D01*
X110005479Y-63007761D01*
X110046519Y-62972702D01*
X110086158Y-62942980D01*
X110110461Y-62927659D01*
X110181346Y-62894745D01*
X110262093Y-62868702D01*
X110343440Y-62852401D01*
X110359225Y-62850535D01*
X110421930Y-62844111D01*
X110372016Y-62769690D01*
X110313776Y-62685619D01*
X110254903Y-62606796D01*
X110189486Y-62525418D01*
X110164044Y-62495000D01*
X110127782Y-62451473D01*
X110102450Y-62418848D01*
X110086575Y-62394082D01*
X110476807Y-62394082D01*
X110503605Y-62427445D01*
X110525425Y-62456449D01*
X110555013Y-62498354D01*
X110589905Y-62549417D01*
X110627633Y-62605896D01*
X110665731Y-62664048D01*
X110701735Y-62720130D01*
X110733176Y-62770400D01*
X110757590Y-62811115D01*
X110764880Y-62823968D01*
X110808722Y-62903247D01*
X110907077Y-62943640D01*
X110951381Y-62963236D01*
X111001846Y-62987796D01*
X111054431Y-63015104D01*
X111105092Y-63042944D01*
X111149788Y-63069098D01*
X111184475Y-63091352D01*
X111204033Y-63106437D01*
X111216414Y-63116056D01*
X111218072Y-63114840D01*
X111575846Y-63114840D01*
X111582650Y-63113662D01*
X111599718Y-63103073D01*
X111607596Y-63097350D01*
X111629954Y-63082105D01*
X111663849Y-63060828D01*
X111703725Y-63036956D01*
X111726369Y-63023864D01*
X111776727Y-62996927D01*
X111834115Y-62968921D01*
X111888288Y-62944782D01*
X111902663Y-62938921D01*
X111991933Y-62903588D01*
X112044563Y-62809198D01*
X112069860Y-62765910D01*
X112102768Y-62712627D01*
X112140552Y-62653494D01*
X112180475Y-62592659D01*
X112219800Y-62534267D01*
X112255791Y-62482463D01*
X112285711Y-62441395D01*
X112296527Y-62427445D01*
X112323192Y-62394082D01*
X112279796Y-62400995D01*
X112230768Y-62413363D01*
X112172789Y-62435128D01*
X112112226Y-62463557D01*
X112055443Y-62495917D01*
X112048961Y-62500082D01*
X111999550Y-62536844D01*
X111943447Y-62586086D01*
X111884482Y-62643827D01*
X111826489Y-62706085D01*
X111773297Y-62768878D01*
X111728739Y-62828223D01*
X111718297Y-62843733D01*
X111693706Y-62883129D01*
X111667368Y-62928236D01*
X111641186Y-62975433D01*
X111617062Y-63021100D01*
X111596897Y-63061619D01*
X111582594Y-63093368D01*
X111576055Y-63112728D01*
X111575846Y-63114840D01*
X111218072Y-63114840D01*
X111220551Y-63113022D01*
X111216175Y-63096134D01*
X111203014Y-63064192D01*
X111186308Y-63027695D01*
X111136810Y-62934176D01*
X111076340Y-62839623D01*
X111007891Y-62747660D01*
X110934453Y-62661914D01*
X110859016Y-62586010D01*
X110784572Y-62523573D01*
X110761339Y-62507298D01*
X111216341Y-62507298D01*
X111273508Y-62584399D01*
X111302993Y-62625239D01*
X111332214Y-62667512D01*
X111356271Y-62704072D01*
X111362895Y-62714742D01*
X111380223Y-62742210D01*
X111393698Y-62761437D01*
X111400000Y-62767984D01*
X111407170Y-62760300D01*
X111421072Y-62740243D01*
X111437104Y-62714742D01*
X111458000Y-62682117D01*
X111485878Y-62641129D01*
X111515837Y-62598924D01*
X111526491Y-62584399D01*
X111583658Y-62507298D01*
X111496279Y-62401014D01*
X111464229Y-62362760D01*
X111436159Y-62330620D01*
X111414540Y-62307322D01*
X111401846Y-62295596D01*
X111400000Y-62294730D01*
X111390909Y-62301891D01*
X111372053Y-62321553D01*
X111345903Y-62350988D01*
X111314931Y-62387466D01*
X111303720Y-62401014D01*
X111216341Y-62507298D01*
X110761339Y-62507298D01*
X110751038Y-62500082D01*
X110695172Y-62467423D01*
X110634731Y-62438357D01*
X110576084Y-62415614D01*
X110525597Y-62401928D01*
X110520203Y-62400995D01*
X110476807Y-62394082D01*
X110086575Y-62394082D01*
X110086096Y-62393334D01*
X110076771Y-62371142D01*
X110072524Y-62348480D01*
X110071404Y-62321559D01*
X110071384Y-62314939D01*
X110072906Y-62280882D01*
X110079720Y-62257141D01*
X110095202Y-62234588D01*
X110105397Y-62222946D01*
X110161615Y-62174644D01*
X110232354Y-62136895D01*
X110315156Y-62110581D01*
X110407565Y-62096587D01*
X110462643Y-62094461D01*
X110579421Y-62104111D01*
X110695531Y-62133106D01*
X110811172Y-62181511D01*
X110920744Y-62245510D01*
X110952159Y-62265990D01*
X110977045Y-62281461D01*
X110991219Y-62289345D01*
X110992772Y-62289846D01*
X111000234Y-62282632D01*
X111018248Y-62262403D01*
X111045007Y-62231273D01*
X111078702Y-62191359D01*
X111117526Y-62144776D01*
X111140935Y-62116442D01*
X111183571Y-62065311D01*
X111223855Y-62018178D01*
X111259566Y-61977549D01*
X111288485Y-61945930D01*
X111308393Y-61925824D01*
X111314017Y-61921057D01*
X111352043Y-61903888D01*
X111398230Y-61897889D01*
X111444710Y-61903058D01*
G37*
%TO.C,C10*%
D15*
X116061252Y-72665000D02*
X115538748Y-72665000D01*
X116061252Y-74135000D02*
X115538748Y-74135000D01*
%TO.C,D4*%
X114115000Y-80840000D02*
X116800000Y-80840000D01*
X114115000Y-82760000D02*
X114115000Y-80840000D01*
X116800000Y-82760000D02*
X114115000Y-82760000D01*
%TO.C,C16*%
X122936252Y-73960000D02*
X122413748Y-73960000D01*
X122936252Y-75430000D02*
X122413748Y-75430000D01*
%TO.C,U3*%
X107240000Y-78640000D02*
X107240000Y-78735000D01*
X107240000Y-83665000D02*
X107240000Y-83760000D01*
X107240000Y-83760000D02*
X111360000Y-83760000D01*
X111360000Y-78640000D02*
X107240000Y-78640000D01*
X111360000Y-78735000D02*
X111360000Y-78640000D01*
X111360000Y-83760000D02*
X111360000Y-83665000D01*
X106700000Y-83670000D02*
X106460000Y-84000000D01*
X106940000Y-84000000D01*
X106700000Y-83670000D01*
G36*
X106940000Y-84000000D02*
G01*
X106460000Y-84000000D01*
X106700000Y-83670000D01*
X106940000Y-84000000D01*
G37*
%TO.C,R7*%
X119827064Y-81065000D02*
X119372936Y-81065000D01*
X119827064Y-82535000D02*
X119372936Y-82535000D01*
%TO.C,Q1*%
X108977500Y-73790000D02*
X108977500Y-73840000D01*
X108977500Y-74960000D02*
X108977500Y-75740000D01*
X108977500Y-76860000D02*
X108977500Y-76910000D01*
X108977500Y-76910000D02*
X110497500Y-76910000D01*
X110497500Y-73790000D02*
X108977500Y-73790000D01*
X110497500Y-74790000D02*
X110497500Y-73790000D01*
X110497500Y-76910000D02*
X110497500Y-75910000D01*
X108437500Y-75730000D02*
X108677500Y-75400000D01*
X108197500Y-75400000D01*
X108437500Y-75730000D01*
G36*
X108437500Y-75730000D02*
G01*
X108197500Y-75400000D01*
X108677500Y-75400000D01*
X108437500Y-75730000D01*
G37*
%TO.C,D1*%
X132440000Y-63840000D02*
X132440000Y-63890000D01*
X132440000Y-65010000D02*
X132440000Y-65790000D01*
X132440000Y-66910000D02*
X132440000Y-66960000D01*
X132440000Y-66960000D02*
X133960000Y-66960000D01*
X133960000Y-63840000D02*
X132440000Y-63840000D01*
X133960000Y-64840000D02*
X133960000Y-63840000D01*
X133960000Y-66960000D02*
X133960000Y-65960000D01*
X131900000Y-65780000D02*
X132140000Y-65450000D01*
X131660000Y-65450000D01*
X131900000Y-65780000D01*
G36*
X131900000Y-65780000D02*
G01*
X131660000Y-65450000D01*
X132140000Y-65450000D01*
X131900000Y-65780000D01*
G37*
%TO.C,U2*%
X127215000Y-70935000D02*
X127215000Y-71030000D01*
X127215000Y-75960000D02*
X127215000Y-76055000D01*
X127215000Y-76055000D02*
X131335000Y-76055000D01*
X131335000Y-70935000D02*
X127215000Y-70935000D01*
X131335000Y-71030000D02*
X131335000Y-70935000D01*
X131335000Y-76055000D02*
X131335000Y-75960000D01*
X126675000Y-75965000D02*
X126435000Y-76295000D01*
X126915000Y-76295000D01*
X126675000Y-75965000D01*
G36*
X126915000Y-76295000D02*
G01*
X126435000Y-76295000D01*
X126675000Y-75965000D01*
X126915000Y-76295000D01*
G37*
%TO.C,C15*%
X133740000Y-71233748D02*
X133740000Y-71756252D01*
X135210000Y-71233748D02*
X135210000Y-71756252D01*
%TO.C,U5*%
X131890000Y-59377500D02*
X131890000Y-61197500D01*
X131890000Y-61197500D02*
X131940000Y-61197500D01*
X131940000Y-59377500D02*
X131890000Y-59377500D01*
X133840000Y-59377500D02*
X133060000Y-59377500D01*
X134960000Y-61197500D02*
X135010000Y-61197500D01*
X135010000Y-59377500D02*
X134960000Y-59377500D01*
X135010000Y-61197500D02*
X135010000Y-59377500D01*
X134960000Y-61737500D02*
X135290000Y-61977500D01*
X135290000Y-61497500D01*
X134960000Y-61737500D01*
G36*
X135290000Y-61977500D02*
G01*
X134960000Y-61737500D01*
X135290000Y-61497500D01*
X135290000Y-61977500D01*
G37*
%TO.C,R6*%
X103372936Y-80665000D02*
X103827064Y-80665000D01*
X103372936Y-82135000D02*
X103827064Y-82135000D01*
%TO.C,R13*%
X135647936Y-73760000D02*
X136102064Y-73760000D01*
X135647936Y-75230000D02*
X136102064Y-75230000D01*
%TO.C,L1*%
X136240000Y-61400378D02*
X136240000Y-62199622D01*
X137360000Y-61400378D02*
X137360000Y-62199622D01*
%TO.C,R14*%
X129502064Y-76960000D02*
X129047936Y-76960000D01*
X129502064Y-78430000D02*
X129047936Y-78430000D01*
%TO.C,R4*%
X129665000Y-60597936D02*
X129665000Y-61052064D01*
X131135000Y-60597936D02*
X131135000Y-61052064D01*
%TO.C,C9*%
X112065000Y-69588748D02*
X112065000Y-70111252D01*
X113535000Y-69588748D02*
X113535000Y-70111252D01*
%TO.C,C8*%
X114061252Y-75265000D02*
X113538748Y-75265000D01*
X114061252Y-76735000D02*
X113538748Y-76735000D01*
%TO.C,C6*%
X125265000Y-60538748D02*
X125265000Y-61061252D01*
X126735000Y-60538748D02*
X126735000Y-61061252D01*
%TO.C,U4*%
X115552500Y-68390000D02*
X115552500Y-69390000D01*
X115552500Y-70510000D02*
X115552500Y-71510000D01*
X115552500Y-71510000D02*
X117372500Y-71510000D01*
X117372500Y-68390000D02*
X115552500Y-68390000D01*
X117372500Y-68440000D02*
X117372500Y-68390000D01*
X117372500Y-70340000D02*
X117372500Y-69560000D01*
X117372500Y-71510000D02*
X117372500Y-71460000D01*
X117912500Y-69570000D02*
X117672500Y-69900000D01*
X118152500Y-69900000D01*
X117912500Y-69570000D01*
G36*
X118152500Y-69900000D02*
G01*
X117672500Y-69900000D01*
X117912500Y-69570000D01*
X118152500Y-69900000D01*
G37*
%TO.C,R15*%
X122902064Y-71760000D02*
X122447936Y-71760000D01*
X122902064Y-73230000D02*
X122447936Y-73230000D01*
%TO.C,D3*%
X114115000Y-78840000D02*
X116800000Y-78840000D01*
X114115000Y-80760000D02*
X114115000Y-78840000D01*
X116800000Y-80760000D02*
X114115000Y-80760000D01*
%TO.C,D2*%
X107702500Y-69190000D02*
X107702500Y-70190000D01*
X107702500Y-71310000D02*
X107702500Y-72310000D01*
X107702500Y-72310000D02*
X109222500Y-72310000D01*
X109222500Y-69190000D02*
X107702500Y-69190000D01*
X109222500Y-69240000D02*
X109222500Y-69190000D01*
X109222500Y-71140000D02*
X109222500Y-70360000D01*
X109222500Y-72310000D02*
X109222500Y-72260000D01*
X109762500Y-70370000D02*
X109522500Y-70700000D01*
X110002500Y-70700000D01*
X109762500Y-70370000D01*
G36*
X110002500Y-70700000D02*
G01*
X109522500Y-70700000D01*
X109762500Y-70370000D01*
X110002500Y-70700000D01*
G37*
%TO.C,C5*%
X136065000Y-56938748D02*
X136065000Y-57461252D01*
X137535000Y-56938748D02*
X137535000Y-57461252D01*
%TO.C,R9*%
X104465000Y-73772936D02*
X104465000Y-74227064D01*
X105935000Y-73772936D02*
X105935000Y-74227064D01*
%TO.C,R8*%
X119827064Y-79065000D02*
X119372936Y-79065000D01*
X119827064Y-80535000D02*
X119372936Y-80535000D01*
%TO.C,C4*%
X127465000Y-60563748D02*
X127465000Y-61086252D01*
X128935000Y-60563748D02*
X128935000Y-61086252D01*
%TO.C,R5*%
X128065000Y-64772936D02*
X128065000Y-65227064D01*
X129535000Y-64772936D02*
X129535000Y-65227064D01*
%TO.C,C7*%
X102265000Y-76938748D02*
X102265000Y-77461252D01*
X103735000Y-76938748D02*
X103735000Y-77461252D01*
%TD*%
M02*
