%TF.GenerationSoftware,KiCad,Pcbnew,10.0.5*%
%TF.CreationDate,2026-08-28T13:52:16+01:00*%
%TF.ProjectId,smartwatch,736d6172-7477-4617-9463-682e6b696361,rev?*%
%TF.SameCoordinates,Original*%
%TF.FileFunction,Soldermask,Bot*%
%TF.FilePolarity,Negative*%
%FSLAX46Y46*%
G04 Gerber Fmt 4.6, Leading zero omitted, Abs format (unit mm)*
G04 Created by KiCad (PCBNEW 10.0.5) date 2026-08-28 13:52:16*
%MOMM*%
%LPD*%
G01*
G04 APERTURE LIST*
G04 Aperture macros list*
%AMRoundRect*
0 Rectangle with rounded corners*
0 $1 Rounding radius*
0 $2 $3 $4 $5 $6 $7 $8 $9 X,Y pos of 4 corners*
0 Add a 4 corners polygon primitive as box body*
4,1,4,$2,$3,$4,$5,$6,$7,$8,$9,$2,$3,0*
0 Add four circle primitives for the rounded corners*
1,1,$1+$1,$2,$3*
1,1,$1+$1,$4,$5*
1,1,$1+$1,$6,$7*
1,1,$1+$1,$8,$9*
0 Add four rect primitives between the rounded corners*
20,1,$1+$1,$2,$3,$4,$5,0*
20,1,$1+$1,$4,$5,$6,$7,0*
20,1,$1+$1,$6,$7,$8,$9,0*
20,1,$1+$1,$8,$9,$2,$3,0*%
G04 Aperture macros list end*
%ADD10C,2.200000*%
%ADD11C,1.700000*%
%ADD12C,0.650000*%
%ADD13O,1.000000X2.100000*%
%ADD14O,1.000000X1.600000*%
%ADD15RoundRect,0.250000X0.625000X-0.350000X0.625000X0.350000X-0.625000X0.350000X-0.625000X-0.350000X0*%
%ADD16O,1.750000X1.200000*%
%ADD17RoundRect,0.250000X0.250000X0.475000X-0.250000X0.475000X-0.250000X-0.475000X0.250000X-0.475000X0*%
%ADD18RoundRect,0.243750X-0.243750X-0.456250X0.243750X-0.456250X0.243750X0.456250X-0.243750X0.456250X0*%
%ADD19RoundRect,0.150000X-0.825000X-0.150000X0.825000X-0.150000X0.825000X0.150000X-0.825000X0.150000X0*%
%ADD20R,2.410000X3.300000*%
%ADD21RoundRect,0.250000X0.262500X0.450000X-0.262500X0.450000X-0.262500X-0.450000X0.262500X-0.450000X0*%
%ADD22RoundRect,0.150000X-0.587500X-0.150000X0.587500X-0.150000X0.587500X0.150000X-0.587500X0.150000X0*%
%ADD23RoundRect,0.250000X-0.475000X0.250000X-0.475000X-0.250000X0.475000X-0.250000X0.475000X0.250000X0*%
%ADD24RoundRect,0.150000X0.150000X-0.512500X0.150000X0.512500X-0.150000X0.512500X-0.150000X-0.512500X0*%
%ADD25RoundRect,0.250000X-0.262500X-0.450000X0.262500X-0.450000X0.262500X0.450000X-0.262500X0.450000X0*%
%ADD26RoundRect,0.218750X-0.381250X0.218750X-0.381250X-0.218750X0.381250X-0.218750X0.381250X0.218750X0*%
%ADD27RoundRect,0.250000X-0.450000X0.262500X-0.450000X-0.262500X0.450000X-0.262500X0.450000X0.262500X0*%
%ADD28RoundRect,0.150000X0.512500X0.150000X-0.512500X0.150000X-0.512500X-0.150000X0.512500X-0.150000X0*%
%ADD29RoundRect,0.150000X0.587500X0.150000X-0.587500X0.150000X-0.587500X-0.150000X0.587500X-0.150000X0*%
G04 APERTURE END LIST*
D10*
%TO.C,SW4*%
X141100000Y-66900000D03*
X141100000Y-73900000D03*
D11*
X143600000Y-68150000D03*
X143600000Y-72650000D03*
%TD*%
D10*
%TO.C,SW3*%
X140900000Y-56450000D03*
X140900000Y-63450000D03*
D11*
X143400000Y-57700000D03*
X143400000Y-62200000D03*
%TD*%
D12*
%TO.C,J1*%
X130910000Y-84000000D03*
X136690000Y-84000000D03*
D13*
X129480000Y-83470000D03*
D14*
X129480000Y-87650000D03*
D13*
X138120000Y-83470000D03*
D14*
X138120000Y-87650000D03*
%TD*%
D15*
%TO.C,J3*%
X141150000Y-80800000D03*
D16*
X141150000Y-78800000D03*
%TD*%
D17*
%TO.C,C10*%
X116750000Y-73400000D03*
X114850000Y-73400000D03*
%TD*%
D18*
%TO.C,D4*%
X114862500Y-81800000D03*
X116737500Y-81800000D03*
%TD*%
D17*
%TO.C,C16*%
X123625000Y-74695000D03*
X121725000Y-74695000D03*
%TD*%
D19*
%TO.C,U3*%
X106825000Y-83105000D03*
X106825000Y-81835000D03*
X106825000Y-80565000D03*
X106825000Y-79295000D03*
X111775000Y-79295000D03*
X111775000Y-80565000D03*
X111775000Y-81835000D03*
X111775000Y-83105000D03*
D20*
X109300000Y-81200000D03*
%TD*%
D21*
%TO.C,R7*%
X120512500Y-81800000D03*
X118687500Y-81800000D03*
%TD*%
D22*
%TO.C,Q1*%
X108800000Y-76300000D03*
X108800000Y-74400000D03*
X110675000Y-75350000D03*
%TD*%
%TO.C,D1*%
X132262500Y-66350000D03*
X132262500Y-64450000D03*
X134137500Y-65400000D03*
%TD*%
D19*
%TO.C,U2*%
X126800000Y-75400000D03*
X126800000Y-74130000D03*
X126800000Y-72860000D03*
X126800000Y-71590000D03*
X131750000Y-71590000D03*
X131750000Y-72860000D03*
X131750000Y-74130000D03*
X131750000Y-75400000D03*
%TD*%
D23*
%TO.C,C15*%
X134475000Y-70545000D03*
X134475000Y-72445000D03*
%TD*%
D24*
%TO.C,U5*%
X134400000Y-61425000D03*
X133450000Y-61425000D03*
X132500000Y-61425000D03*
X132500000Y-59150000D03*
X134400000Y-59150000D03*
%TD*%
D25*
%TO.C,R6*%
X102687500Y-81400000D03*
X104512500Y-81400000D03*
%TD*%
%TO.C,R13*%
X134962500Y-74495000D03*
X136787500Y-74495000D03*
%TD*%
D26*
%TO.C,L1*%
X136800000Y-60737500D03*
X136800000Y-62862500D03*
%TD*%
D21*
%TO.C,R14*%
X130187500Y-77695000D03*
X128362500Y-77695000D03*
%TD*%
D27*
%TO.C,R4*%
X130400000Y-59912500D03*
X130400000Y-61737500D03*
%TD*%
D23*
%TO.C,C9*%
X112800000Y-68900000D03*
X112800000Y-70800000D03*
%TD*%
D17*
%TO.C,C8*%
X114750000Y-76000000D03*
X112850000Y-76000000D03*
%TD*%
D23*
%TO.C,C6*%
X126000000Y-59850000D03*
X126000000Y-61750000D03*
%TD*%
D28*
%TO.C,U4*%
X117600000Y-69000000D03*
X117600000Y-70900000D03*
X115325000Y-69950000D03*
%TD*%
D21*
%TO.C,R15*%
X123587500Y-72495000D03*
X121762500Y-72495000D03*
%TD*%
D18*
%TO.C,D3*%
X114862500Y-79800000D03*
X116737500Y-79800000D03*
%TD*%
D29*
%TO.C,D2*%
X109400000Y-69800000D03*
X109400000Y-71700000D03*
X107525000Y-70750000D03*
%TD*%
D23*
%TO.C,C5*%
X136800000Y-56250000D03*
X136800000Y-58150000D03*
%TD*%
D27*
%TO.C,R9*%
X105200000Y-73087500D03*
X105200000Y-74912500D03*
%TD*%
D21*
%TO.C,R8*%
X120512500Y-79800000D03*
X118687500Y-79800000D03*
%TD*%
D23*
%TO.C,C4*%
X128200000Y-59875000D03*
X128200000Y-61775000D03*
%TD*%
D27*
%TO.C,R5*%
X128800000Y-64087500D03*
X128800000Y-65912500D03*
%TD*%
D23*
%TO.C,C7*%
X103000000Y-76250000D03*
X103000000Y-78150000D03*
%TD*%
M02*
